<?xml version="1.0" encoding="utf-8"?>
<!-- Generator: Adobe Illustrator 24.1.2, SVG Export Plug-In . SVG Version: 6.00 Build 0)  -->
<svg version="1.1" id="Layer_2" xmlns="http://www.w3.org/2000/svg" xmlns:xlink="http://www.w3.org/1999/xlink" x="0px" y="0px"
	 viewBox="0 0 575 518.4" style="enable-background:new 0 0 575 518.4;" xml:space="preserve">
<style type="text/css">
	.st0{fill:#EDEDED;}
	.st1{fill:#AF1310;}
	.st2{fill:#E99B9B;}
	.st3{fill:#F1C981;}
	.st4{fill:#640E0B;}
</style>
<g>
	<path class="st0" d="M257.8,356.5c0.1,3.5-0.1,7.1-0.6,10.7c-0.4,3.4-1.2,6.8-1.9,10.3c-6.8-1.6-11.6-4.9-12.8-12.2
		c-0.5-2.9-1.5-5.6-2.4-8.6c2.2-0.9,4.5-1.6,6.6-2.7s4.3-2.3,6.1-3.9c1.6-1.4,2.7-1.2,3.3,0.4C257,352.3,257.7,354.4,257.8,356.5z"
		/>
	<path class="st0" d="M306,344.6c4.2,1.7,5.1,3.7,4.2,8c-0.5,2.3-1.4,4.6-2.2,7.5c-2.3-2.1-4.6-3.6-6-5.7c-1.6-2.4-3.7-2.7-5.8-2.1
		c-6.4,1.7-12.7,2.1-19.2,0.5c-2.5-0.6-4.1,0.5-5.7,2.6c-1.3,1.8-3.4,3.1-5.1,4.6c-0.4-0.1-0.8-0.3-1.1-0.4
		c-0.3-3.8-0.9-7.6-0.9-11.5c0-1.1,1.6-2.7,2.8-3.2c5.6-2.3,11.4-4.4,17.2-6.3c1.6-0.5,3.7-0.8,5.3-0.3
		C295,340.3,300.5,342.4,306,344.6z"/>
	<path class="st0" d="M333.7,357.1c-0.9,3.3-1.9,6.7-2.7,10.1c-1.5,6.6-6.7,8.6-12.6,10.4c-0.6-9.8-5.7-19.5,0.2-28.4
		C324.1,352.2,328.8,354.6,333.7,357.1z"/>
	<path class="st1" d="M357.6,188.3c7.4,7.4,6.9,18.3-3.7,24.7c-0.5-0.5-1-1-1.4-1.5c-0.3-0.4-0.6-0.7-0.8-1.1
		c-0.1-0.2-0.2-0.4-0.3-0.6c-2.8-5.1-2.1-12.2,2.1-17.5l0,0c0.5-0.6,1-1.1,1.5-1.7C355.7,189.7,356.6,188.9,357.6,188.3z"/>
	<path class="st1" d="M218.4,190.5c4.9,5,6.6,12.1,4.2,17.8c-0.4,1-1,2-1.7,3c0,0.1-0.1,0.1-0.2,0.2c-0.6,0.6-2,1.1-2.4,0.8
		c-0.9-0.7-1.8-1.4-2.6-2.1s-1.4-1.5-2-2.3c-0.4-0.5-0.8-1.1-1.1-1.6c-0.3-0.6-0.6-1.1-0.8-1.7c-2-4.7-1.3-9.9,2.2-14.4
		c0.3-0.4,0.7-0.9,1.1-1.3c0.2-0.2,0.4-0.4,0.6-0.6c0.3,0.2,0.6,0.5,0.9,0.7C217.3,189.4,217.9,190,218.4,190.5z"/>
	<path class="st0" d="M126.3,143.5c0.2,3.5-1.2,7.1-1.8,10.7c-9-12.4-17.5-24.4-30.6-32.8c2.4-1.1,4.1-2.3,6-2.7
		c2.9-0.6,2.2-2.1,1.1-3.5c-2-2.7-4.3-5.2-6.4-7.8c-3.8-4.7-4.5-10-3.5-15.8c0.6-3.6,0.4-7.4,0.1-11c-0.3-5-1.1-9.9-1.7-14.8
		c6.4,1.2,11.1,6.6,11.7,12.7c0.6,5.8,3.7,10.2,8.1,13.8c2.9,2.4,6,4.6,8.7,7.3c3.9,4,5.2,9.1,5.7,14.5
		C124.7,123.8,125.8,133.6,126.3,143.5z"/>
	<path class="st0" d="M482.6,92.6c1.4,5.9-0.6,10.8-4.2,15.3c-1.7,2.2-3.6,4.2-5.3,6.4c-0.7,1-1,2.3-1.5,3.4
		c2.8,1.2,5.1,2.2,8.1,3.5c-13,8.4-21.5,20.4-30.2,33.4c-0.9-3.1-1.9-5.4-2.1-7.6c-0.3-4.8-0.3-9.7,0.1-14.5
		c0.5-6.1,1.7-12.1,2.2-18.2c0.7-7.9,3.8-14.2,10.2-19.1c2.8-2.1,5.4-4.3,7.8-6.8c3.2-3.3,4.6-7.4,4.7-11.9c0.1-3,1.5-5.1,3.8-6.7
		c2.5-1.8,5.1-3.4,7.8-5.1c-0.7,7.4-1.5,14.4-2,21.5C481.8,88.4,482.1,90.6,482.6,92.6z"/>
	<path class="st0" d="M246,221.3c-2.9,4.3-5.7,8.6-11.4,10.2c-8.2,2.3-16.3,4-24.8,1.2c-5-1.6-8.6-4.5-11.2-8.9
		c-3.1-5.3-4.2-11.1-5-17.1c-0.6-4.1,0.5-7.8,1-11.7c0.4-2.7-0.2-5.6-0.5-8.9c3.2,0.7,6.5,1.5,9.7,2.3c0.3,5.7,0.3,11.3,1,16.7
		c0.6,5,3,9.3,6.8,12.7c4.2,3.7,8.9,4.3,13.6,1.8c4.1-2.2,7.7-5.2,11.9-8.1C239.9,214.4,242.9,217.7,246,221.3z"/>
	<path class="st0" d="M379.6,199.8c0.7,11.2-0.9,22.3-10.3,30c-5,4.1-11.4,4.8-17.7,4.4c-3.9-0.3-7.7-1.5-11.6-2.3
		c-5.4-1.1-8.9-4.7-11.7-9.1c-0.4-0.6-0.3-2,0.2-2.6c2.6-3.2,5.3-6.2,8-9.3c4.4,4.1,8.5,7.9,14.3,9.5c5.5,1.5,9.4-0.9,12.7-4.6
		c3.6-4.1,5.3-9.1,5.4-14.6c0.1-4.1,0-8.3,0-12.8c3.4-0.8,6.9-1.6,10.6-2.5C378.4,191,379.3,195.4,379.6,199.8z"/>
	<path class="st0" d="M359.7,268.2L359.7,268.2c1,1.1,2,2.1,3.1,3.2c1.1,3.7,1.8,7.5,3.3,11c3.9,9.2,5,18.6,2.9,28.4
		c-0.7,3.3-1.3,6.7-1.9,10l0,0c-0.2,0.4-0.3,0.9-0.5,1.3l0,0c-3.2,3-4.4,7.1-5.6,11.1l0,0l0,0c-1.3,1.7-2.6,3.4-3.9,5.1
		c0,0.2-0.1,0.3-0.3,0.3c-0.7,0.5-1.3,0.9-2,1.4l0,0c-0.6,0.4-1.2,0.8-1.9,1.2l0,0l0,0l0,0c-1.1,0.2-2.1,0.4-3.2,0.6
		c-3.2,0.6-6.4,1.5-9.6,1.7c-7.6,0.6-14.3-2.6-21.2-5.2c-2.6-1-5.4-1.8-8-2.7c7.6,2.9,15.1,6.2,22.9,8.5c2.9,0.9,5.9,1.1,8.7,0.8
		c-2.9,0.4-5.8,0.1-8.8-0.8c-7.8-2.3-15.3-5.6-22.9-8.5c-0.6-0.3-1.2-0.5-1.8-0.8c-4-2-7.9-4-11.9-6c-0.2,0-0.3,0-0.5-0.1
		c-0.4,0-0.8,0-1.2-0.1c0.4,0,0.8,0,1.3,0c-0.7-0.4-1.5-1-2.2-1.1c-3-0.3-5.9-0.5-8.9-0.6c-4.1-0.2-8.2,0.1-11.2,3.6
		c0.2-0.1,0.4-0.2,0.6-0.2c-0.2,0.1-0.4,0.2-0.6,0.3c-0.6,0.2-1.2,0.5-1.8,0.7c-2.1,0.9-4.3,1.9-6.4,2.8c2.1-1,4.2-1.9,6.4-2.9
		c-0.7,0.1-1.6-0.1-2.2,0.2c-6.3,2.6-12.5,5.2-18.7,7.8c-9.1,3.9-18.3,6.2-28,2.8c-0.3-0.1-0.7,0.3-1.1,0.4
		c4.8,2.8,10.2,3.1,15.3,2.1c3.9-0.7,7.6-1.8,11.2-3.1c-3.6,1.3-7.4,2.4-11.2,3.1c-5.2,1-10.5,0.7-15.3-2.1
		c-0.6-0.3-1.2-0.5-1.8-0.8c-0.2-0.2-0.4-0.3-0.7-0.5c-1.2-1-2.5-2.1-3.7-3.1c-0.2-0.2-0.4-0.4-0.6-0.6c-0.4-0.6-0.9-1.2-1.3-1.7
		v-0.1c-0.8-0.8-1.5-1.7-2.2-2.5c0.7,0.9,1.4,1.7,2.2,2.5c-0.5-1.2-0.9-2.4-1.6-3.5c-6.5-8.9-9-18.9-8.7-29.7c0.1-4,0.5-8,1.3-11.9
		c1.1-5.3,2.5-10.5,4.3-15.6c1.2-3.2,3.3-6.1,7-7.3c7.6-2.4,15.3-3.6,23.3-3.1c2.4,0.1,4.7,0.6,7.3,0.9c-0.3,0.8-0.4,1.2-0.5,1.6
		c-1.8,4.5-3.8,8.9-3.2,13.9c0.3,2.3,0,5.3,3.1,6.4l0,0c0.2,0.2,0.4,0.4,0.6,0.6c0.6,0.6,1.3,1.2,1.9,1.8c0.2,0.2,0.4,0.4,0.6,0.5
		l0,0c2,3.3,5.6,3.8,7.9,1.3l0,0l0,0c0.2-0.1,0.4-0.3,0.6-0.4c0.1-0.1,0.3-0.2,0.5-0.2l0,0c0.8-0.7,1.6-1.3,2.5-2
		c0.2-0.2,0.4-0.4,0.5-0.5c0.5-0.6,0.9-1.2,1.4-1.7l0,0c0.9-1.4,1.9-2.9,3-4.6l0,0c-1.1,1.8-2.1,3.2-3,4.6c1.3-0.8,2.5-1.7,3.8-2.5
		c0.8,0,1.9,0,3,0c0.6,0.3,1.2,0.5,1.8,0.8c1.7,1.8,3.3,3.6,5,5.4l0,0c-0.1,2.1,1,3.1,3,3.1l0,0l0,0c0.8,0.4,1.6,0.9,2.4,1.3
		c1.7,0.7,3.6,2.1,5.2,1.8c2.7-0.5,5.3-2,7.8-3.3c0.6-0.3,0.7-1.6,1.1-2.4l0,0c0.3-0.6,0.5-1.2,0.8-1.7l0,0c2.2-1.5,4.4-3.1,6.6-4.6
		c0.5-0.4,0.9-1,1.3-1.5l0,0c0.6-0.3,1.2-0.5,1.8-0.8c1.5,3,2.1,6.7,6.3,7.4l0,0l0,0l0,0c0.6,0.4,1.3,0.8,1.9,1.2l0,0
		c0.2,0,0.3,0,0.4,0.1l0,0c2.4,2.4,4.2,2.4,6.2,0l0,0c0.4-0.2,0.8-0.5,1.2-0.7c0.6-0.5,1.2-0.9,1.8-1.3c0.2-0.2,0.4-0.4,0.5-0.6
		c0,0,0,0,0.1-0.1c0.9-0.8,2.1-1.5,2.6-2.5c2.5-4.6,1.9-9.3,0.2-13.9c-0.7-1.7-1.9-3.3-2.8-4.9l0,0c-0.2-0.4-0.4-0.8-0.6-1.2
		c1.3-0.4,2.5-1.3,3.8-1.2c6.6,0.2,13.3,0.4,19.9,0.9c3.5,0.3,7,1.3,10.5,2.1l0,0C359.3,267.8,359.5,268,359.7,268.2z M361.1,295.5
		c2.5-1.3,2.7-3.5,2-5.8s-1.6-4.6-2.9-6.6c-1.4-2.2-3.3-4-6.2-3.7c-4.1,0-6.6,2.2-5.4,5.5c1.2,3.4,3.1,6.6,5,9.7
		C354.9,296.5,358.9,296.7,361.1,295.5z M354.1,307.2c0.6-3.7-6-10.4-9.8-9.8c-0.6,0.1-1.2,0.7-1.7,1.2c-3.3,3.5-4.9,7.6-4.6,12.5
		c0.2,3.7,0.7,4.2,4.4,4.2C347.7,315.3,353.4,311.3,354.1,307.2z M352.3,332.8c1.5-2.3,0.6-4.5-0.9-6.5c-1.6-2-3.3-3.8-5.1-5.9
		c-1.6,1.3-3,2.3-4.2,3.5c-5,5.4-2.1,8.9,2.7,10.7C347.3,335.6,350.9,334.8,352.3,332.8z M231,315.3c3.9,0,4.6-0.3,4.5-4.3
		c0-2.8-0.6-5.7-1.8-8.2c-2.8-6-4.2-6.2-9.8-2.9c-0.4,0.3-0.8,0.6-1.3,0.8c-2.3,1.1-3.2,2.9-3.1,5.4
		C219.7,310.9,225,315.2,231,315.3z M231.6,333.2c2.4-1.9,3.2-4.6,1.6-7c-1.4-2.1-3.4-3.8-5.5-6.1c-2.1,2.4-4,4.3-5.6,6.4
		c-1.9,2.6-1.9,5.4-0.1,6.9C224.4,335.6,228.6,335.5,231.6,333.2z M224.3,286.8c1.1-2.3,1.6-4.9-1-6.5c-2.4-1.6-5.1-1.5-7.4,0.3
		c-3.6,2.6-5.1,6.4-5.7,11.7c0.4,0.6,0.9,2.2,1.9,3c2.4,1.9,6.4,1.3,8.2-1.3C221.8,291.7,223.1,289.3,224.3,286.8z"/>
	<path class="st0" d="M261.4,435.9c-2.5,0.8-4.6,1.5-6.7,2.1l0,0c-0.2-0.4-0.4-0.8-0.5-1.3c0.1-0.6,0.5-1.4,0.3-1.9
		c-2.3-5-2.6-10.2-1.6-15.6c0.1-0.5-0.3-1.1-0.5-1.7c0.2-0.4,0.3-0.8,0.5-1.3c0.5-1,1.1-2.1,1.9-3.8c0.7,1.5,1.4,2.4,1.7,3.4
		c-0.3-0.9-1-1.9-1.7-3.3c-0.9,1.7-1.4,2.8-1.9,3.8c0.8-0.1,1.5-0.1,2.6-0.2C254.6,423.6,257.3,429.8,261.4,435.9z"/>
	<path class="st0" d="M307.4,422.5c1.9,3-1.3,11.6-4.7,12.5c-6.5,1.8-13,2.1-19.7,1.4c-3.3-0.4-6.7-0.6-10-0.8
		c-2.7-0.2-4.2-1.8-5.2-4.1c-0.7-1.8-1.4-3.6-2.2-5.4c-0.9-1.8-0.5-3.1,1.6-4.1c8.2,5.9,28.2,5.9,39.4,0.1
		C306.9,422.2,307.2,422.2,307.4,422.5z"/>
	<path class="st0" d="M320.3,416.3c3.4,7.4,1.4,14.3-1.9,21.7c-1.8-1.8-5.1-0.2-5.8-3.7l0,0c0.4-0.6,0.8-1.3,1.2-1.9
		c0.4-0.8,0.9-1.6,1.3-2.4l0,0c0.5-0.4,1.2-0.8,1.4-1.3c0.9-3.6,1.6-7.2,2.4-10.8c0.3-1.1,0.8-2.2,1.3-3.3l0,0
		C320.3,415.1,320.1,415.8,320.3,416.3z"/>
	<path class="st0" d="M350.6,417.7c2.8,10.7,4.1,21.4,1.6,32.3c-0.4,1.7-0.8,3.4-1.8,4.8c-8.3,11.6-18.7,21-31.8,26.8
		c-4,1.8-8.9,2.4-13.3,2.5c-11.2,0.2-22.4-0.5-33.6-0.4c-17,0.1-30.8-7.7-43.2-18.1c-6.2-5.2-8.1-13-8.9-20.9
		c-1.5-14.2,2.2-27.4,7-40.5c1.7-4.7,2.6-9.8,3.5-14.7c0.6-3.2-0.3-6-2.8-8.3c-0.9-0.8-1.5-2.1-2.3-3.3
		c11.9-0.9,22.8,11.5,20.6,22.8c-1.5,7.8-3.4,15.6-3.7,23.4c-0.5,12.8,7.3,19.4,17.4,23.7c0.6,0.3,1.7,0.1,2.3-0.3
		c4.6-3.3,10.1-3.8,15.4-4.3c5.3-0.6,10.6-0.9,15.9-0.6c4.9,0.3,9.8,1.4,14.7,2.3c1.1,0.2,2.4,0.5,3,1.3c2.5,3,5,1.5,7.5,0.2
		c13.4-7.1,15.6-17.7,14-29.8c-0.8-5.5-2.4-10.9-3.4-16.3c-1.6-8.7,5.1-19,13.7-21.2c2-0.5,4.4-2.8,5.8,0.9c-4,1.3-5.2,7.8-4.3,11.5
		C346,400,348.3,408.8,350.6,417.7z"/>
	<path class="st2" d="M271.3,410.3c-0.4-0.2-0.8-0.5-1.2-0.7l0,0l0,0c-0.4-0.7-0.9-1.3-1.3-2c-0.1-0.2-0.3-0.5-0.4-0.7
		c-0.3-0.6-0.7-1.1-1-1.7c-0.3-0.5-0.7-1.1-1-1.7c-0.4-0.7-0.8-1.4-1.1-2.1c-0.1-0.3-0.2-0.5-0.3-0.8c0,0,0-0.1-0.1-0.2
		c0-0.1-0.1-0.3-0.1-0.4c-0.4-1.1-0.5-2.2-0.3-3.1c0-0.1,0-0.3,0.1-0.4c0-0.1,0.1-0.3,0.1-0.4c0.6-1.7,2.1-3,4.3-3.9
		c0.3-0.1,0.5-0.2,0.8-0.3c5.3-1.8,10.3-0.7,15.3,1.4c0.9,0.4,2.2,0.5,3.2,0.2c0.1,0,0.3-0.1,0.4-0.1c1.3-0.6,2.7-1.2,4.1-1.7
		c0.1,0,0.3-0.1,0.4-0.1s0.2-0.1,0.4-0.1c2.6-0.8,5.3-1,8.1-0.2c0.7,0.2,1.4,0.4,2.1,0.7c1,0.4,2.1,0.9,3.1,1.4c0.7,0.3,1.4,0.7,2,1
		l0,0c0.3,0.2,0.7,0.3,1,0.5l0,0l0,0l0,0l0,0c0.6,2.1,0.6,4,0.3,5.7c-0.7,3.1-2.7,5.6-5.8,7.8c-0.3,0.2-0.6,0.5-0.8,0.7
		c-0.3,0.3-0.5,0.6-0.8,0.9l0,0c-0.4,0.5-0.7,0.9-1.1,1.4l0,0c-0.1,0.1-0.2,0.2-0.3,0.4c-1.9,1.7-3.7,3.3-5.6,5l0,0l0,0l0,0
		c-0.7,0.6-1.3,1.2-2,1.8c-4,3.8-10.1,3.4-14.8-0.9c-1.6-1.4-3.3-2.8-4.9-4.1C273.1,412.2,272.2,411.3,271.3,410.3z"/>
	<path class="st3" d="M120.3,368.3c0.3-0.4,0.5-0.9,0.8-1.3c0.3-0.4,0.5-0.8,0.7-1.3c0.3-0.6,0.6-1.2,0.9-1.8
		c0.2-0.4,0.3-0.8,0.5-1.2c0.6-1.7,0.8-3.3,0.7-5.1l0,0l0,0c2.5-0.2,1.9-2.1,1.9-3.6l0,0l0,0l0,0l0,0l-0.1-0.1l0,0
		c0.2-0.2,0.4-0.4,0.6-0.6c0.1-0.1,0.2-0.2,0.3-0.3c0.4-0.4,0.9-0.9,1.2-1.4c0,0,0-0.1,0.1-0.1c1.7-3.3,3.3-6.7,4.8-10.1
		c0.9-1.9,1.5-4,2.3-5.9l0,0l0,0l0,0v-0.1l0,0c1.3-2.2,2.6-4.4,3.8-6.6l0,0l0,0l-0.1-0.1c0.1,0,0.2-0.1,0.3-0.1c1-0.4,1.7-0.9,2-1.7
		c0.3-0.7,0.3-1.5,0.1-2.4l0,0v-0.1c0.1,0,0.1-0.1,0.2-0.1c0.3-0.1,0.7-0.3,1-0.4c0.2-0.1,0.4-0.3,0.5-0.4c1.6-2.5,3-5.1,4.4-7.6
		c0.2-0.4,0-1.1-0.1-1.7l0,0l0,0h0.1l0,0l0,0c0.8-0.5,1.5-1.1,2-1.7c0.4-0.4,0.7-0.8,1-1.3l0,0c0.1-0.2,0.2-0.5,0.3-0.8
		c0.3-0.7,0.4-1.5,0.3-2.4l0,0v-0.1l0,0c0.2,0,0.3-0.1,0.4-0.1c0.4-0.1,0.8-0.4,1.1-0.6l0,0c0.2-0.2,0.3-0.3,0.5-0.5l0,0
		c0.7-1,1-2.4,1.4-4l0,0c-1.4,0-2.8,0.2-4,0.4c-3.9,0.8-7.1,2.7-9.9,5.4l0,0v0.1c-0.6,0.4-1.2,0.7-1.8,1.1l0,0l-0.1,0.1l0,0
		c-0.6,0.4-1.2,0.8-1.8,1.1l0,0v0.1c-0.4,0.3-0.9,0.7-1.3,1l0,0l0,0c-0.4,0.2-0.8,0.5-1.2,0.7l0,0l0.1,0.1c-1.7,0.1-3.4,1-4.7,2.3
		c-1,1-1.9,2.3-2.2,3.6c-0.2,0.2-0.4,0.3-0.6,0.5c-2.4,1.1-4.2,2.7-4.2,5.6h-0.1l0,0c-0.3,0.6-0.5,1.2-0.7,1.9l0,0l0,0l0,0
		c-0.1,0.1-0.3,0.2-0.4,0.3c-0.4,0.2-0.8,0.4-1,0.7c0,0-0.1,0.1-0.1,0.2c-0.1,0.4-0.2,0.8-0.3,1.3c0,0.2-0.1,0.5-0.2,0.7
		c-0.3,0.9-0.6,1.9-0.8,2.8c-0.2,0.8-0.4,1.6-0.7,2.4c-0.5,1.9-0.8,3.7-0.9,5.6c-0.1,4.3,0.1,8.6,0.4,12.9c0.2,3.6,0.5,7.1,0.8,10.7
		c0.1,0.8,0.4,1.5,0.9,2.5l0,0C119.7,367,120,367.6,120.3,368.3L120.3,368.3z M36.5,319.7L36.5,319.7
		C36.5,319.8,36.5,319.8,36.5,319.7v0.1c-1.4,0.7-2.8,1.3-4.3,2.1c0-0.5-0.2-1-0.1-1.4c0.8-7,1.1-14.1,2.6-20.9
		c1.9-8.9,4.4-17.6,7-26.3c1.4-4.7,3.4-9.1,5.1-13.7l0,0l0,0v-0.1l-0.1-0.1c1-1.8,2-3.6,3-5.4l0.1,0.1c0.6-1.1,1.2-2.1,1.7-3.2l0,0
		h0.1l0,0c0.5-0.3,1.2-0.4,1.5-0.8c3.3-4.3,6.6-8.6,9.9-13c0.3-0.4,0.1-1.1,0.2-1.7c0,0,0,0,0,0.1l0,0l0.1-0.1c0,0,0.1,0,0.1-0.1
		l0,0c0,0,0,0,0,0.1c2.1,0.6,2.2-0.7,2-2.2c0.6-0.1,1.3,0,1.7-0.4c1-1,1.8-2.2,2.7-3.4h-0.1c0,0,0,0,0.1-0.1
		c-1.3-0.5-2.7-1.7-3.9-1.5c-2.9,0.4-5.8,1.2-8.5,2.2c-2.3,0.8-4.5,2.1-6.8,3.2c-0.2-0.2-0.4-0.4-0.5-0.5c1.7-3.3,3.4-6.5,4.9-9.8
		c0.5-1,0.6-2.2,1-3.3c0,0.1-0.1,0.1-0.1,0.1v-0.1v-0.1l0.1-0.1c0,0,0,0,0.1,0l-0.1,0.1c1.5-0.3,2.2-1,2-2.3c0-0.1,0-0.2,0-0.3
		c0-0.1,0-0.1-0.1-0.2c0-0.1-0.1-0.3-0.1-0.4v-0.1v-0.1l0.1-0.1l0,0c0,0,0,0.1-0.1,0.1c2.6,0.1,2.3-1.8,2.4-3.5h0.1
		c0.2-0.2,0.3-0.4,0.5-0.6c0.1-0.1,0.2-0.2,0.2-0.3c-0.2,0.3-0.5,0.6-0.7,0.9c1.6-1.9,3.4-3.8,4.9-5.8c2-2.5,3.8-5.1,5.7-7.6
		c2.3-1.4,5.1-2.4,5.2-5.8l0.1-0.1l0.1-0.1l0,0l-0.1,0.1c3-0.1,4.1-2.4,5-4.7l0,0l0,0c2.2,0.1,3.4-0.9,3.7-3
		c0.4-0.2,0.8-0.5,1.2-0.7l0,0L86,185l0,0c2.5-1.9,4.9-3.7,7.4-5.6l0,0c1.4-0.8,2.8-1.7,4.3-2.6l0.1,0.1c0.4-0.3,0.8-0.5,1.2-0.8
		v0.2v-0.1v-0.1l0,0c1.4-0.8,2.9-1.6,4.3-2.4v0.1c0.8-0.5,1.6-0.9,2.4-1.4v0.1c0.4-0.3,0.8-0.5,1.2-0.8l0.1,0.2c0.1,0,0.1,0,0.1-0.1
		c5.3-1.9,10.7-3.8,16-5.7c14-4.9,28.5-7.2,43.3-7.6c7.1-0.2,14.1,0.3,21.2,0.6c2.5,0.1,3.1-1.1,2.7-3.1c-0.1-0.5-0.2-0.9-0.3-1.4
		v-0.1c-0.1-0.4-0.2-0.9-0.3-1.4V153c-0.2-0.9-0.4-2-0.7-3.1c1.4,0.1,2.4,0.1,3.3,0.3c2.6,0.6,5.2,1.3,7.9,1.9c0,0,0.1,0,0.1,0.1
		l0,0l0,0l0,0v-0.1c0.4,0.3,0.8,0.5,1.2,0.8l0,0l0,0c3.3,2.1,6.6,4.1,9.9,6.2l0,0c0.6,0.6,1.3,1.1,1.9,1.7l0.1,0.1
		c0.6,0.4,1.1,0.9,1.6,1.3l0,0c0.2,0.2,0.3,0.4,0.5,0.5l0,0c0.6,0.7,1.2,1.3,1.8,2c0.6-0.8,1.1-1.7,1.7-2.5l0,0l0,0c0,0,0,0,0.1,0
		c1.7,0,3.4,0,5.1-0.1l0,0l0,0l0,0c0.6,0.4,1.2,0.8,1.9,1.2l0.1,0.1c-0.2,0.7-0.1,1.1,0,1.4c0.3,0.7,1.2,0.7,2.2,0.6
		c0,0,0,0,0.1,0.1c0.4,0.4,0.8,0.8,1.2,1.1c0.3,0.5,0.5,0.9,0.7,1.3v-0.1v-0.1h0.2c0,0.4,0,0.9,0,1.2c0,0.1,0,0.2,0.1,0.3
		c0.3,1,1,1.5,2.6,1.1l0,0c0.4,0.4,0.8,0.8,1.2,1.3c-0.1,0.7,0,1.2,0.1,1.7c0,0.1,0.1,0.2,0.1,0.3c0.6,1.8,2.5,2.5,4.2,3.3l0.1,0.1
		l0,0c0.1,0.1,0.1,0.2,0.2,0.3c1.2,1.7,2.3,3.4,3.6,5c0.1,0.1,1.9-1.2,3.1-1.9c0.1,0.5,0.3,1,0.4,1.5c1.8,6.9,2.3,13.8,0,20.7
		c-1-0.5-1.8-0.9-2.6-1.3c-0.5-0.2-0.9-0.4-1.3-0.7c-0.4-0.4-0.8-0.9-1.2-1.3c0.5-0.8,0.5-1.2,0.2-1.4c0,0,0-0.1-0.1-0.1h-0.1
		c-0.1-0.1-0.2-0.1-0.4-0.1c-0.1,0-0.3,0-0.4,0s-0.2,0-0.3,0s-0.2,0-0.3,0l0,0l0,0l0,0c0.2-0.7,0.1-1.2-0.1-1.5
		c0-0.1-0.1-0.1-0.2-0.2c-0.3-0.3-0.9-0.4-1.6-0.3l0,0c-0.4-0.4-0.8-0.7-1.2-1.1l0,0l0,0c-0.1-0.6,0.1-1.4-0.3-1.7
		c-3-2.2-6-4.3-9.1-6.3l0.1,0.1c0,0-0.1,0-0.1-0.1l0,0l0,0v0.1c-0.6-0.4-1.2-0.7-1.8-1.1v-0.1c-0.6-0.4-1.2-0.7-1.8-1.1l0.1-0.1l0,0
		c-1.4-0.8-2.9-1.6-4.3-2.4h-0.1c-0.4-0.5-0.7-1.2-1.3-1.5c-2.4-1.2-4.8,5.6-7.2,4.6c-11.2-5-22.5-15.3-34.9-12.3
		c-10.7,2.6-21.2,5.5-31.2,10c-0.3,0.1-0.6,0.3-0.9,0.4c-0.6,0.3-1.2,0.6-1.8,1l0,0c-0.6,0.4-1.2,0.7-1.7,1.1
		c-0.6,0.4-1.1,0.8-1.7,1.1c-0.3,0.2-0.6,0.4-0.9,0.5l-0.1-0.1c-2.2,1.3-4.4,2.5-6.7,3.8l-0.1-0.1l0,0c-2.1,1.2-4.1,2.5-6.2,3.7l0,0
		l0,0l0.1,0.1c-0.3,0.2-0.6,0.4-0.9,0.6c-0.3,0.2-0.6,0.4-0.9,0.6l0,0l0,0l0,0c-0.6,0.4-1.2,0.8-1.8,1.2l0,0l0,0v0.1l0,0
		c-0.6,0.4-1.2,0.7-1.8,1.1v-0.1l0,0c-1.5,1.1-2.9,2.1-4.4,3.2v-0.2c-0.2,0.2-0.4,0.4-0.7,0.7l0,0c0,0,0,0-0.1,0h0.2v0.2
		c-0.3,0.1-0.6,0.2-0.8,0.3l0,0c-0.8,0.7-1.5,1.4-2.3,2.1l0,0l0,0l0.1,0.1c-0.7,0.4-1.3,0.7-1.9,1.1l0,0c0.1,0.1,0.1,0.1,0.2,0.2
		c0.3,0.3,0.5,0.6,0.8,0.9c0.2,0.2,0.4,0.4,0.6,0.4c1.2,0.2,2.4-0.1,3.6-0.1c3,0,6.1-0.3,9.1,0.1c3.5,0.5,6.8,1.5,10.3,2.3h0.1l0,0
		c1.3,0.8,2.6,1.5,3.8,2.3l0.2,0.1c-0.4,2,0.3,2.7,2.3,2.3l0,0l0.1,0.2l0,0l0,0c0.1,0.2,0.1,0.4,0.2,0.6c0.1,0.3,0.2,0.6,0.3,1
		s0.3,0.8,0.3,1.2c-4.1,0.8-8.4,1.2-12.4,2.5c-0.5,0.2-1,0.3-1.5,0.5c-1,0.4-1.9,0.8-2.9,1.2c-2.4,1.1-4.7,2.3-7.1,3.4v-0.1l0,0
		c-0.4,0.3-0.8,0.5-1.2,0.8l0,0l0,0c-2,1.2-4.1,2.5-6.1,3.7l0,0l0,0l0,0l0,0v0.1c-0.4,0.3-0.9,0.7-1.3,1l0,0l0,0
		c-0.4,0.3-0.8,0.5-1.2,0.8l0,0l0,0l0.1,0.1c-0.4,0.3-0.9,0.6-1.3,1l0,0l0,0c-0.6-0.1-1.1,0-1.5,0.1c-1.3,0.3-2.1,1.4-2.2,3
		c-0.2,0.2-0.4,0.4-0.6,0.5c-0.5,0.2-0.9,0.5-1.4,0.7l0,0h0.1h-0.1h0.2v0.1c-0.4,0.4-0.8,0.7-1.1,1.1l-0.1,0.1c0,0-0.1,0-0.2,0
		c-2.1,0.4-5.8,4.8-5.9,7.2l-0.1-0.1l0,0c-0.2,0.4-0.5,0.8-0.7,1.3l0,0c-2.2,0-2.5,1.3-2.3,3.1h-0.1c-1,1.1-2.1,2-2.8,3.3
		c-0.3,0.6,0.4,1.7,0.6,2.5l0,0l0,0c0.7-0.4,1.4-0.9,2.2-1.3c0,0,0,0,0.1,0l0.1,0.1c0.8-0.5,1.6-0.9,2.4-1.4l0.1,0.1h0.1
		c1-0.2,2.1-0.4,3.1-0.7c2.4-0.8,4.7-1.7,7.2-2.3c0.1,0,0.1,0,0.2,0c0.2,0,0.5,0.1,0.7,0.2c0.4,0.2,0.8,0.4,1.1,0.5
		c0.1,0,0.2,0.1,0.2,0.1l0,0l0,0l0.1,0.1c-1.4,0.9-3,1.7-4.1,2.9c-1,1-1.4,2.6-2,4l-0.1,0.2c-0.1,0-0.2,0-0.3,0c-0.1,0-0.2,0-0.3,0
		c-0.2,0-0.3,0-0.5,0c-1.3,0.2-1.4,1.4-1.3,2.9l-0.1,0.2c-2.2-0.5-2.3,0.7-1.8,2.3l-0.1,0.2c-2.6,0.2-3.1,1.9-3,4.1l-0.1,0.2
		c-2.4,0-2.9,1.4-2.4,3.5l-0.1-0.1l0,0c-0.6,1.1-1.2,2.1-1.7,3.2l0,0h-0.1c-0.3,0.4-0.5,0.8-0.7,1.2l0,0l0,0l0,0
		c-0.9,0.9-2.1,1.6-2.6,2.7c-2.8,6.8-5.7,13.5-7.9,20.5c-1.3,3.8-1.5,8-2,12c-0.1,0.7,0.3,1.8,0.8,2.1c0.1,0,0.1,0.1,0.1,0.1
		s0,0,0.1,0c0.6,0.2,1.7-0.3,2.4-0.8c0.6-0.4,0.9-1.3,1.3-1.9l0,0l0,0l0,0v-0.1c1.3-0.8,2.5-1.6,3.8-2.4l0,0l0,0l0,0l0,0
		c0.6-0.4,1.2-0.8,1.8-1.2l0.1,0.1c0.4-0.3,0.8-0.5,1.2-0.7l0,0l0,0c1.4-0.8,2.8-1.6,4.2-2.4l0.1,0.1c0,0,0.1,0,0.1-0.1
		c1.2-0.4,2.5-0.6,3.7-1.1c3.3-1.2,6.5-2.5,10.2-3.9c-4.6,13.4-4.6,26.1-0.4,38.9c0,0,0,0,0.1,0c0,0,0,0,0,0.1
		c1.1-0.7,1.6-1.5,2-2.4c2.6-6.5,5.3-13,7.8-19.5c0.5-1.3,0.7-2.7,1-4c0,0,0,0,0,0.1v-0.1c0,0,0,0,0-0.1c1.7-0.3,2.4-1.3,1.8-3l0,0
		l0,0l0,0c2.4-2,4.6-4,4.8-7.4l0,0l0.1-0.2l0,0c0.5-0.1,1.2-0.1,1.4-0.4c2-2.3,3.9-4.7,5.8-7.1c0.5-0.7,0.5-1.8,0.8-2.7l0,0l0.1-0.1
		l0,0c0.2,0.1,0.4,0.1,0.6,0.1c1.5,0.2,1.5-1,1.3-2.3l0,0c2.1-0.7,4-1.7,4-4.4h0.2v0.2l0,0v0.1c0.2-0.2,0.5-0.5,0.7-0.7l0,0h-0.1
		c0,0,0,0,0.1-0.1h-0.2v-0.2c0.5-0.5,0.9-1,1.4-1.6l0.2,0.1l-0.2-0.1l0.1,0.1l-0.1-0.1l0,0c0.1,0,0.2,0,0.3,0l0,0
		c1.3,0.2,1.8-0.4,1.5-1.8c0.2-0.2,0.5-0.5,0.7-0.7l0,0l0,0c0.5-0.5,1.1-0.9,1.6-1.4h0.2v0.2c0,0,0,0,0.1,0c0,0,0,0,0,0.1
		c0.7-0.5,1.4-1,2.3-1.7c-0.8-0.8-1.6-1.4-2.4-1.7c-0.3-0.1-0.5-0.2-0.8-0.3c-1.7-0.4-3.4,0-5,0.4c-8.8,2.5-17.7,4.9-26.4,7.6
		c-2.7,0.8-5,2.6-7.5,3.9h-0.1l0,0c-0.2-0.8-0.6-1.7-0.4-2.5c0.3-1.5,0.9-3,1.4-4.5v-0.1l0,0l0,0h-0.1c0,0,0,0,0-0.1l0,0
		c0.9-0.9,1.8-1.8,2.6-2.8c2.5-3.2,5.1-6.5,7.5-9.8c0.4-0.6,0.5-1.5,0.8-2.3l0,0l0.2-0.1c0,0,0,0,0.1,0c2,0.1,3.4-0.7,3.4-2.9h0.2
		v0.2c0,0,0,0,0.1-0.1v0.1l0,0c0.2-0.2,0.5-0.4,0.7-0.7l0,0h-0.1c0,0,0,0,0-0.1h-0.1v-0.1c0.4-0.4,0.9-0.7,1.3-1.1l0,0
		c0.4-0.2,0.8-0.5,1.3-0.7l0,0l0,0c0.6-0.4,1.2-0.8,1.8-1.2h0.1c1.4-0.8,2.8-1.6,4.2-2.5v0.1l0,0l0.1,0.1c0.4-0.3,0.8-0.5,1.1-0.7
		v0.1l0,0l0,0l0,0c0.1,0,0.1,0,0.1-0.1c0.9-0.2,1.9-0.3,2.8-0.6c11.5-4.9,23.6-6.4,36-5.9c0.9,0,1.8-0.4,2.7-0.6
		c-0.2-0.9-0.3-2-0.7-2.7c-2.8-4.4-6.3-8.6-8.6-13.3c-3-6.1-4.8-12.7-3.3-19.6c0.9-4,2-8,3.1-12l0,0l0,0l0,0h-0.1
		c0.6-1,1.2-2.1,1.8-3.1l0,0v-0.2l0,0c0.7-0.8,1.3-1.5,2-2.2l0,0h-0.1l0,0h-0.1v-0.2l0,0c2.9-0.2,3.5-2.5,4.4-4.6l0,0
		c0.4-0.3,0.8-0.5,1.2-0.8l0,0l-0.1-0.1c0.8-0.6,1.6-1.1,2.5-1.7v-0.1c0.6-0.4,1.2-0.7,1.8-1.1l0.1,0.1l0,0l0,0h0.1
		c1.7-0.1,3.4-0.3,5-0.4c0.2,0.5,0.2,0.6,0.2,0.7c-0.2,0.5-0.3,1-0.5,1.4c-3,8.4-6.4,16.8-4.7,26.1c0.8,4.1,1.1,8.5,4.5,11.7h-0.1
		c0.3,0.4,0.5,0.8,0.8,1.2l0,0c0.8,1.4,1.6,2.9,2.4,4.3l0,0c0,0,0,0,0,0.1h0.1c0.2,2.6,1.9,5.3,4,6.4c0.3,0.2,0.6,0.3,0.9,0.4
		c0.2,0.1,0.3,0.1,0.5,0.1l0,0c1.5,1.1,2.9,2.5,4.4,3.4h0.1c0.1,0.1,0.3,0.2,0.4,0.2c0.4,0.2,0.8,0.4,1.2,0.5h0.1
		c0.7,0.2,1.4,0.4,2.2,0.6c0.9,0.3,1.9,0.5,2.8,0.8c2.5,0.7,5,1.3,7.5,1.9c0.9,0.2,1.7,0.4,2.6,0.6c1.7,0.4,3.3,0.8,5,1.3
		c-0.1,0.5-0.2,1.4-0.3,2.4c-0.5,0.5-1.1,0.9-1.6,1.4h-0.2V250c0,0,0,0-0.1,0.1V250c-0.2,0.2-0.5,0.5-0.7,0.7s-0.4,0.4-0.6,0.6h0.1
		l0,0c0,0,0,0,0,0.1h0.1v0.1c-1,0.6-2.1,1.2-3.1,1.8l0,0l0,0l0,0l0,0l0,0c-3.7,0.9-7.5,1.8-11.2,2.6c-1.6,0.4-3.3,0.4-4.7,0.9
		c-1.2,0.5-1.9,1.3-0.8,1.9c0.1,0,0.1,0.1,0.2,0.1c0.2,0.1,0.4,0.2,0.6,0.3c1,2.6,0.7,4.9-1.4,6.9c-0.3,0.3-0.1,1.1-0.2,1.6
		l-0.1,0.2c-2.5-0.5-1.9,1.7-2.6,2.8h0.1l0,0l0,0l0,0c0,0,0,0-0.1,0.1h0.1v0.1c-0.7,0.2-1.6,0.2-2,0.7c-2,2.5-3.9,5.1-5.6,7.8
		c-0.8,1.3-1.1,2.8-1.6,4.3l0,0l-0.1-0.1c-0.3,0.4-0.5,0.8-0.8,1.2c0,0,0,0,0.1,0l0,0l0,0l0,0c-0.7,0.6-1.8,1.1-2.1,1.9
		c-2.3,6-4.5,12-6.5,18c-0.5,1.5-0.1,3.3-0.1,5.5h0.1c0,0,0,0,0,0.1c3.4-1.5,5.6-3.4,6.9-6.1l0,0V304l0,0c0.4-0.3,0.9-0.7,1.3-1l0,0
		l0,0c1-0.6,2-1.2,3.1-1.8l0,0c0,0,0,0,0.1,0c1.9-0.4,3.8-0.8,5.6-1.3c-0.1,0.9-0.2,1.9-0.3,2.8l-0.1,0.2c-0.5,0.5-0.9,1.1-1.4,1.6
		l0,0c-0.8,0.9-1.6,1.7-2.4,2.6h0.1l0,0l0,0h0.1v0.1c-2-0.3-2.1,0.8-1.8,2.3l-0.1,0.2c-2.5,0.9-3.5,2.8-3.6,5.3h-0.1
		c-1,1.2-2.3,2.2-3,3.5c-4.7,9.1-7.9,18.7-9.5,28.9c-0.4,2.8-1.9,5.7,0.9,9.2l0,0c0,0,0,0,0.1,0.1c1.8-2.2,3.4-4.2,5-6.2l0,0
		c0.2-0.2,0.4-0.4,0.6-0.5c0.4-0.3,0.9-0.5,1.3-0.8l0,0h-0.2c0,0,0.1,0,0.1-0.1h-0.1V349c1.1-1,2.1-1.9,3.2-2.8l0,0
		c2-1.5,4.1-2.9,6.1-4.4v0.1l0,0v0.1c0.6-0.5,1.2-0.9,1.8-1.4l0,0v-0.1c0.6-0.4,1.2-0.8,1.8-1.1h0.1l0,0c1.2-0.4,2.4-0.7,3.6-1.1
		c2.4-0.8,4.7-1.6,7-2.4c0.2,0.2,0.3,0.5,0.5,0.7c-0.5,0.7-1,1.3-1.4,2.1c-0.9,1.8-1.7,3.7-2.5,5.5h-0.1c-2.6,2-4.3,4.5-3.8,7.9l0,0
		c-0.4,0.2-1.1,0.2-1.2,0.5c-3,7.6-4.9,15.5-4.4,23.7c0,0,0,0.1,0.1,0.1c0.1,0.3,0.9,0.5,1.3,0.7c0,0,0,0,0-0.1c0,0,0,0,0,0.1
		c0.2-0.1,0.3,0,0.5,0.1c-0.2,0.4-0.3,0.8-0.4,1.3c0,0,0,0,0.1,0l0,0c0.2,0.1,0.4,0.3,0.7,0.4c1.3-1.7,2.6-3.4,3.9-5.1
		c1.6-2.2,3.3-4.4,4.9-6.6l0.1-0.1l0,0l0,0c0.4-0.2,0.8-0.5,1.3-0.7l-0.1-0.1c0.8-0.6,1.7-1.1,2.5-1.7l0.1-0.1
		c1-0.6,2.1-1.2,3.1-1.8l0.1,0.1v-0.1l0,0l0.1,0.2l-0.1-0.2l0,0c0.5,0,1,0,1.4-0.2c8-3.8,16.5-5.6,25.3-5.9
		c-0.1,0.9-0.3,1.8-0.4,2.8l-0.2,0.1c-2-0.4-3.3,0.3-3.5,2.4l-0.1-0.1c-0.9,1.7-2.2,3.2-2.6,5c-2.4,10-4.6,20-6.8,30
		c-0.5,2.1-1.1,4.3-1.7,6.4h0.1c0,0,0,0,0,0.1c0,0,0,0,0-0.1l0,0c0,0,0,0.1-0.1,0.1h0.1v0.1c-0.4,0.8-0.9,1.6-1.3,2.4l0,0
		c-0.5,0.8-0.9,1.6-1.4,2.4h0.1l0,0l0,0l0,0c-2.2,0.9-3.4,2.4-3,4.9v0.2c-2.3,0-2.7,1.7-3,3.5l-0.1,0.2c-2-0.4-2.8,0.3-2.3,2.3
		l-0.2,0.1c-2.2-0.3-2.8,1.2-3.2,2.8l0,0c-0.4,0.3-0.8,0.5-1.2,0.7v0.1l0,0l0,0c-0.6,0.4-1.2,0.8-1.8,1.1L194,424l0,0
		c-7,2.9-13.9,5.8-20.8,8.7c-0.3,0.2-0.5,0.8-0.7,1.3l-0.1-0.1c-2,1.3-4.1,2.5-6.1,3.8v-0.1l0,0l0,0v-0.1c-0.2,0.2-0.4,0.5-0.7,0.7
		l0,0l0,0l0,0l0.1,0.1c-0.6,0.4-1.2,0.8-1.8,1.2l0,0l0,0l0,0v-0.1c-1.9,0.9-4.6,1.1-4.4,4.3c-2.6-0.5-2.1,2-3.1,3.1h0.1h0.1
		l-0.1,0.1h0.1v0.1c-0.9,0.7-2.2,1.2-2.7,2.2c-1.1,2-1.9,4.2-3,6.8c-0.9-1.4-1.4-2.3-2-3.2l0,0c-0.6-0.8-1.4-1.5-2.1-2.2v-0.1h0.2
		v-0.1c0,0,0,0,0-0.1v0.1c-0.1-1-0.1-2.1-0.4-3c-4.8-14.7-4.5-29.6-2.5-44.6c0.1-1-0.3-2.1-0.5-3.2l0,0c0,0,0,0,0-0.1
		c-1.1,0.5-2.1,1.1-3.1,1.6l0,0l0,0l0,0c0,0,0,0-0.1,0l0.1,0.1c-0.4,0.3-0.8,0.7-1.3,1l0,0c-0.5,0.5-1.1,0.9-1.6,1.4h-0.2v-0.1l0,0
		l0,0v-0.1c-1.4,0.8-4,0.3-3.5,3.2c0,0-0.1,0.1-0.2,0.1c-1.6-0.5-2.2,0-1.7,1.7l-0.1,0.1c-2-0.4-2.8,0.3-2.3,2.3l-0.1,0.2
		c-2.5-0.2-2.6,1.9-3.2,3.5h0.1c0,0,0,0,0,0.1l0,0l0,0c0,0,0,0.1-0.1,0.1h0.1l0,0c-3-0.2-3.4,1.9-3.6,4.2l-0.1,0.1
		c-2.4-0.4-1.9,1.8-2.6,2.9h0.1c0,0,0,0,0,0.1c0,0,0,0,0.1,0l0,0l-0.1,0.1h0.1l0,0c-2.4-0.5-1.9,1.8-2.6,2.9h0.1c0,0,0,0,0,0.1
		c0,0,0,0,0.1-0.1l0,0l-0.1,0.1h0.1v0.1c-1.1,0.9-2.4,1.7-3.3,2.8c-1.5,2-2.1,2-3.5-0.1c-0.8-1.3-2-2.4-3-3.6l0,0l0,0l0,0
		c0,0,0,0,0,0.1c0,0,0,0,0-0.1l0,0c-0.3-0.8-0.6-1.6-0.8-2.3c-0.5-1.4-1-2.8-1.6-4c-0.5-1.1-1.7-1.9-2.5-2.8l0,0c0,0,0,0,0,0.1
		c-0.2-1.1-0.1-2.2-0.5-3.3c0,0,0,0,0-0.1c-1-2.8-2.1-5.5-3.2-8.2c-0.4-1.1-0.8-2.2-1.2-3.2c-0.2-0.5-0.4-1.1-0.6-1.7
		c-0.9-2.5-1.7-5.1-2.4-7.7c-0.5-1.7-0.9-3.5-1.4-5.2c0,0,0,0,0-0.1c-2.3-9.5-3.6-19.2-4.1-29.1c0-0.6-0.2-1.1-0.4-1.7
		c0-0.1-0.1-0.3-0.1-0.4c-0.1-0.4-0.2-0.8-0.3-1.1l0,0v-0.1c-0.3-0.1-0.7-0.1-1-0.2c-0.6,0.9-1.1,1.8-1.7,2.7l0,0
		c-2.2-0.1-3.7,0.6-3.4,3.2h-0.2V359v-0.1c-2,1.1-4.6,1.8-4.4,4.9l0,0c-0.8,0.9-1.6,1.7-2.5,2.5h0.1l0,0l-0.1,0.1h0.1l0,0
		c-2.3,0.5-5.6,4.7-5.5,7.2h-0.1c-0.2,0.4-0.5,0.8-0.7,1.2l0,0c-0.3,0.4-0.7,0.9-1,1.3h-0.1c-0.4,0.6-0.8,1.2-1.2,1.8h-0.1
		c-1,1.6-2,3.3-3,4.9h-0.1c-2.5,1.3-3.8,3.3-3.6,6.1v0.1c-2.4,1.3-3.6,3.3-3.2,6.1l0,0c-2.4,0.5-2.5,2.3-2.5,4.3l0,0l0,0l0,0l0,0
		l0,0c-0.8,0.7-1.7,1.5-2.8,2.4c-0.4-0.3-1.1-0.7-1.4-1.2l-0.1-0.1l0,0c-7.6-30.2-5.1-60.1,3.3-89.7l0,0c0,0,0,0,0-0.1
		c-3.1-1.6-5.1-1.1-8.2,2.2l0,0l0,0v-0.1c-0.6,0.5-1.3,0.9-1.9,1.4c0,0,0,0,0.1,0.1l0,0l0,0v0.1c-0.4,0.3-0.8,0.7-1.3,1l0,0
		c-0.4,0.3-0.8,0.5-1.2,0.7l0.1,0.1c0,0-0.1,0-0.1,0.1l0,0c-0.4,0.3-0.8,0.6-1.3,1l0,0C39,317.9,37.7,318.8,36.5,319.7L36.5,319.7z"
		/>
	<path class="st3" d="M170.2,95.7c1.6,10.2,1.1,20.2-4,29.5c-0.4,0.8-0.6,1.7-0.9,2.5c-2.5,3.1-4.9,6.2-7.4,9.3
		c-2.7,0-4.1-0.1-5.1-1.2c-0.4-0.4-0.7-0.9-1.1-1.6c-0.1-0.3-0.3-0.6-0.4-1c-0.2-0.5-0.4-1.1-0.7-1.7c-1.1-2.9-2.1-5.9-3.3-8.8
		c-0.2-0.5-0.5-0.9-0.8-1.2c-0.3-0.4-0.6-0.8-0.9-1.2l0,0c-0.2-0.4-0.4-0.8-0.6-1.2l0,0c-0.8-1.4-1.6-2.9-2.5-4.3l0,0
		c-2.1-4.1-4.1-8.2-6.2-12.3l0,0c-0.3-3-2.4-4.2-4.9-4.9c-2-1-4.1-2.1-6.1-3.1c3.7-1.2,7.3-2.7,11-3.6c0.9-0.2,1.6-0.5,2.1-0.8
		c0.4-0.2,0.6-0.4,0.8-0.7c0.5-0.7,0.2-1.7-0.9-2.9c-1.6-1.9-3.7-3.3-5.6-4.9c-1.2-1-2.5-2.1-3.7-3.1c-0.4-0.2-0.8-0.4-1.3-0.6
		c-0.4-0.4-0.8-0.8-1.2-1.2l0,0c-1.4-1-2.9-2.1-4.3-3.1c-0.6-0.6-1.2-1.2-1.8-1.8l0,0c-0.6-0.4-1.2-0.8-1.9-1.2
		c-1.2-0.8-2.5-1.6-3.7-2.5c-1-0.6-2.1-1.2-3.1-1.9c-2.1-1.2-4.1-2.6-6.2-3.6c-3-1.4-6.1-2.6-9.2-3.8c-1-0.6-2.1-1.2-3.1-1.8
		c-2.1-2.9-4.1-5.8-6.2-8.6l0,0c-0.5-1.9-0.9-3.8-1.4-5.8c1,0.1,1.8,0.2,2.6,0.3l0,0c1.2,0.8,2.5,1.6,3.7,2.5l0,0
		c1.8,1,3.7,2,5.5,3.1l0,0c9.1,4.5,18,9.3,27.3,13.4c10.4,4.7,21,8.8,31.5,13.1c0.6,0.3,1.4,0.4,2.1,0.5c0.1,0,0.2,0.1,0.3,0.1
		c1.2,1.3,2.4,2.5,3.7,3.7l0,0c0.5,0.6,0.9,1.3,1.3,1.9c0.4,0.6,0.9,1.3,1.3,1.9l0,0c1.7,2.6,3.2,5.3,4.2,8.2
		C169.6,92.6,170,94.1,170.2,95.7z"/>
	<path class="st3" d="M488.1,42c-1,3.1-1.8,5.5-2.6,8c-2.3,2.7-4.5,5.3-6.8,8l0,0c-0.8,0.4-1.6,0.8-2.5,1.2l0,0
		c-5.1,2.5-10.3,5-15.4,7.4l0,0c-0.4,0.2-0.8,0.4-1.2,0.6l0,0l0,0c-1.2,0.8-2.5,1.7-3.7,2.5c-0.6,0.4-1.2,0.8-1.9,1.2
		c-0.6,0.6-1.2,1.2-1.8,1.9c-1.9,1.4-3.7,2.9-5.5,4.3l0,0c-0.4,0.2-0.8,0.4-1.2,0.6l0,0c-2.4,1.1-4.5,2.6-6.2,4.5
		c-0.2,0.2-0.4,0.4-0.6,0.6c-0.4,0.4-0.7,0.8-1.1,1.3c-0.7,0.9-1.4,1.8-2,2.8l0,0c-0.5,0.6-1.5,1.7-1.3,1.8c0.2,0.3,0.5,0.6,0.7,0.8
		s0.4,0.3,0.6,0.5c0.3,0.2,0.6,0.4,1,0.5c3.3,0.9,6.7,1.7,10.1,2.5c0.4,0.1,0.7,0.3,1.5,0.7c-2.8,1.7-5.5,3.1-7.9,4.9
		c-1.4,1.1-2.3,2.9-3.4,4.4c-1,2.5-2.1,4.9-3.1,7.4c-0.4,0.6-0.8,1.2-1.3,1.8c-1.6,2.5-3.5,4.9-4.8,7.6c-2.1,4.4-3.7,8.9-5.6,13.4
		c-0.1,0.2-0.1,0.3-0.2,0.5s-0.2,0.3-0.2,0.5c-0.5,0.9-1.1,1.8-1.6,2.7c-3.1,1.6-4.4-1.7-6.7-2.4c-1-1.2-2.1-2.5-3.1-3.7l0,0
		c-0.8-1.2-1.6-2.5-2.5-3.7l0,0c-1.5-4.2-3.3-8.4-4.3-12.7c-2.6-10.8-1.3-21.1,4.6-30.6c0.2-0.3,0.4-0.7,0.5-1.1
		c0-0.1,0.1-0.2,0.1-0.3c0.1-0.3,0.2-0.6,0.3-0.9l0,0c0.2-0.2,0.4-0.4,0.6-0.6l0,0l0,0c1.6-1.7,3.3-3.3,4.9-5
		c0.6-0.4,1.2-0.8,1.8-1.2c4.7-1.8,9.5-3.6,14.2-5.6c9.4-3.8,18.8-7.5,28-11.8c7.1-3.3,13.9-7.3,20.8-11C482,45,484.7,43.7,488.1,42
		z"/>
	<path class="st3" d="M469.3,252.6L469.3,252.6c-0.1,0-0.2-0.1-0.2-0.1c-0.3-0.2-0.7-0.4-1-0.6l0,0c0-0.3,0-0.5-0.1-0.8
		c0-0.2,0-0.4-0.1-0.7c0,0,0,0,0-0.1c0-0.5-0.1-1.1-0.2-1.8l0,0c0.6,0.2,1.3,0.4,1.9,0.6c1.2,0.4,2.4,0.7,3.5,1.1
		c0.5,0.2,1.1,0.4,1.6,0.6c2.8,1.1,5.6,2.6,8.4,3.8c0.1,0,0.2,0.1,0.2,0.1c0.1,0,0.2,0,0.3,0.1c0.4,0.1,0.8,0.1,1.2,0
		c0.1,0,0.2,0,0.2-0.1c0.1,0,0.1-0.1,0.2-0.1l0,0c0.1,0,0.1-0.1,0.1-0.2c0,0,0-0.1,0.1-0.1c0-0.1,0.1-0.2,0.1-0.3
		c0.1-0.5,0.1-1.1-0.2-1.5c-1-1.5-2.2-2.8-3.3-4.2l0,0l0,0l0,0l-0.1,0.1c0.2-1,0.3-1.8-0.3-2.1l0,0c-0.3-0.2-0.6-0.2-1.1-0.2
		c0,0,0,0-0.1,0s-0.2,0-0.3,0v-0.3c-0.3-1-0.3-2.2-0.9-2.9c-1.4-1.6-2.8-3.2-4.3-4.8l0,0c-1.4-1.6-2.9-3.1-4.5-4.6
		c-1.4-1.4-3.4-2.1-5.1-3.2l0,0l0,0l0,0v0.1c-0.6-0.4-1.2-0.8-1.8-1.1v-0.1l0,0l0,0c-0.6-0.4-1.2-0.8-1.8-1.2v-0.1l0,0l0,0
		c-0.6-0.4-1.2-0.8-1.8-1.1l0.1-0.1l0,0c-0.1-0.3-0.2-0.6-0.4-0.8c-7.9-5.1-16.5-8-25.8-8.7c-1.5-0.1-2.7-0.2-2.7-2l0,0
		c1.2-1.3,2.4-2.5,3.7-3.7l0,0l0,0c0.4-0.2,0.8-0.5,1.2-0.7l0,0l-0.1-0.1c0.4-0.3,0.9-0.7,1.3-1l0,0l0,0l0,0c0.6,0,1.3,0.1,1.8-0.1
		c1.9-0.9,3.8-1.6,5.7-2.2c0.8-0.2,1.5-0.4,2.3-0.6c0.1,0,0.3-0.1,0.4-0.1c4.1-0.8,8.3-0.8,12.6-0.1c0.8,0.2,1.8-0.1,2.7-0.4
		c0.2-0.1,0.4-0.1,0.6-0.2c0.2,0,0.4-0.1,0.5-0.1l0,0c0.1-0.4,0.2-0.9,0.3-1.3l0,0c-2.4-1.4-4.8-2.9-7.2-4.3l0,0l-0.2-0.1l0,0
		c-0.7-0.7-1.5-1.3-2.2-2l0,0l0,0v0.1c-0.6-0.4-1.2-0.8-1.8-1.1v-0.1l0,0c-1.2-0.8-2.5-1.6-3.7-2.4l0,0l0,0
		c-0.6-0.4-1.2-0.8-1.8-1.2h-0.1c-0.8-0.5-1.6-1-2.4-1.5c-0.2-0.1-0.4-0.3-0.6-0.4l0,0l-0.1,0.1c-1-0.6-2-1.2-3.1-1.8l0,0l0,0
		c-0.4-0.2-0.8-0.5-1.2-0.8l0,0l-0.1,0.1l0,0c-0.1-0.1-0.2-0.2-0.3-0.3c-0.3-0.3-0.6-0.6-0.8-0.9c-0.4-0.4-0.8-0.7-1.2-1
		c-12.1-6.5-24.8-11.2-38.3-13.9c-7.7-1.5-15.4-3.6-23.3-0.9c-1.3,0.5-2.7,0.9-4,1.3c-2,0.7-4,1.3-6,2c-1.3,0.5-2.6,0.9-4,1.4
		c-0.7,0.3-1.3,0.5-2,0.8c-0.8,0.3-1.6,0.8-2.4,1.2c-1.2,0.7-2.3,1.6-3.5,2.4c-0.5,0.3-0.9,0.6-1.4,0.9c0,0,0,0-0.1,0l-0.1-0.1l0,0
		l0,0c-1,0.7-2,1.3-3,2l-0.1-0.1l0,0l0,0c-1,0.6-2,1.3-3,2l0,0l0.1,0.1c-0.4,0.3-0.9,0.7-1.3,1l0,0l0,0l0,0
		c-0.4,0.3-0.8,0.5-1.2,0.7l0.1,0.1c-0.4,0.3-0.9,0.7-1.3,1l0,0c-0.4-0.1-0.8-0.1-1.1,0c-0.4,0.1-0.8,0.2-1,0.5
		c-0.5,0.4-0.8,1.1-0.9,2l0,0l0,0l0,0l0,0c-0.2,0.2-0.5,0.5-0.7,0.7h0.1c-0.4,0.3-0.8,0.5-1.2,0.8l0,0l0.1,0.1l0,0l0,0
		c-0.5,0.2-1.1,0.4-1.6,0.6c-0.1,0-0.2,0.1-0.3,0.2c-0.2,0.1-0.4,0.2-0.5,0.4l0,0c-2.9,2.9-5.6,5.9-8.6,9c-2.3-7.8-2-15.4,0.7-23.4
		c1,1.9,1.5,2.7,2,2.8c0.1,0,0.1,0,0.2,0c0.3-0.1,0.6-0.5,1-1.2l0,0l0.1,0.1l-0.1-0.1l0.1,0.1l-0.1-0.1c2.2-2.4,4.5-4.7,6.7-7.1l0,0
		c0-0.1-0.3-0.5-0.4-0.7c0.4-0.4,0.8-0.8,1.2-1.3c0.1,0.1,0.4,0.4,0.4,0.4l0,0c2.8-3.1,5.6-6.2,8.4-9.3l0,0l0.1-0.1l0.1,0.1l0,0l0,0
		l0,0l0,0c2.6-0.7,5.2-1.6,7.8,0.1l0,0l0,0l0,0l0,0c0.6,0.3,1.6,1,1.8,0.8c3.6-2.9,7.2-5.9,10.7-8.9v0.1l0,0l0,0
		c0.6-0.5,1.2-0.9,1.8-1.3v0.1l0,0l0,0c0,0,0,0,0.1,0h-0.1c1.3-0.5,2.6-1,4-1.4c3.4-1.1,6.9-2.1,11-3.3c-0.1,0.4-0.2,0.9-0.3,1.3
		c-0.1,0.4-0.2,0.8-0.3,1.2c0,0.1-0.1,0.2-0.1,0.3c0,0.1,0,0.2-0.1,0.3c0,0.2-0.1,0.4-0.1,0.6c0,0.1,0,0.2-0.1,0.3
		c-0.2,0.9-0.3,1.7-0.4,2.4c0,0.3-0.1,0.5-0.1,0.8c-0.1,0.6,0.7,1.3,1.1,2l0,0l0,0c0.6,0.2,1.2,0.6,1.9,0.6c0.3,0,0.5,0,0.8-0.1h0.1
		c0.7,0,1.4-0.1,2.1-0.2c0.2,0,0.4,0,0.5-0.1c0.4,0,0.9-0.1,1.3-0.1c0.7,0,1.4-0.1,2.1-0.1c9.1,0.3,18.2,0.5,27.3,1.2
		c16.4,1.3,31.9,6,46.7,13.2c2.1,1,4.3,1.7,6.4,2.6l0,0l0,0c1.4,0.8,2.9,1.7,4.3,2.5l0,0c0,0,0,0,0-0.1l0,0c1.3,0.8,2.5,1.6,3.7,2.4
		v0.1l0,0c1,0.6,2,1.3,3,2l0,0c0.4,0.3,0.8,0.6,1.2,0.9c0.4,0.3,0.8,0.6,1.2,0.9l0,0c0.1,0.3,0.2,0.7,0.4,1c0.1,0.3,0.3,0.6,0.5,0.8
		c0.3,0.4,0.6,0.8,0.9,1.1c0.2,0.2,0.5,0.4,0.7,0.5c0.1,0.1,0.3,0.2,0.4,0.3c0.2,0.1,0.5,0.3,0.7,0.4c0.1,0,0.2,0.1,0.3,0.1
		c0.3,0.1,0.5,0.2,0.8,0.3c0.3,0.1,0.6,0.2,1,0.3l0,0v0.2H492l0,0c0.2,0.2,0.5,0.4,0.7,0.7l0,0V190h0.2l0,0c0.2,0.9,0.7,1.8,1.4,2.5
		c0.9,0.9,2.1,1.5,3.2,1.4c0.4,0.4,0.8,0.8,1.2,1.2c0,0.1,0,0.3,0,0.4c0.2,1,0.9,2.2,1.9,3.1c0.2,0.2,0.4,0.4,0.6,0.5
		c0.6,0.5,1.2,0.8,1.7,1c0.1,0,0.2,0.1,0.4,0.1l0,0l0.1,0.2l0,0c0.4,0.4,0.8,0.7,1.1,1.1v0.2h-0.2l0,0c0.6,1.7,1.3,3.2,2.4,4.4
		c0.3,0.3,0.7,0.6,1.2,0.9c0.3,0.2,0.6,0.3,1,0.5c0.2,0.1,0.4,0.1,0.5,0.2l0.1,0.2c-0.1,0.6-0.2,1.2-0.1,1.6c0,0.1,0.1,0.1,0.1,0.2
		s0.1,0.1,0.1,0.2c0.1,0.2,0.3,0.3,0.6,0.3c0.2,0,0.4,0,0.6,0l0,0c0.1,0,0.2,0,0.3,0v0.2c-0.2,0.6-0.3,1.1-0.2,1.4
		c0,0.1,0.1,0.1,0.1,0.2c0.2,0.2,0.6,0.3,1.3,0v0.2l0,0c-0.2,0.5-0.3,1.1-0.2,1.4c0,0.1,0.1,0.1,0.1,0.2c0.2,0.2,0.6,0.3,1.3,0l0,0
		v0.1l0,0l0,0l0,0c0.4,0.6,0.8,1.2,1.1,1.8l0,0l0,0c-0.2,0.6-0.3,1.1-0.2,1.5c0,0.2,0.1,0.4,0.3,0.6c0.3,0.5,0.9,0.8,1.7,1l0,0
		c-0.2,0.6-0.2,1.1-0.1,1.5c0.1,0.4,0.2,0.6,0.5,0.9s0.8,0.6,1.5,0.7l-0.1,0.1l0,0c0,0,0,0,0,0.1l0,0c1.4,3.5,2.8,7.1,4.2,10.6l0,0
		c-1.8-0.7-3.5-1.6-5.4-2.1c-3.7-1.1-7.4-2-11.2-2.8c-0.6-0.1-2,0.6-2.2,1.1v0.1c0,0.4,0,0.8,0.2,1.2c0.2,0.5,0.5,1.1,0.9,1.5
		c0.4,0.5,1.3,0.6,1.9,0.9l0,0l0,0l0.1-0.1h0.2l0,0c0,0.5-0.1,1.1,0.1,1.5c0,0.1,0,0.1,0.1,0.2c3,3.6,6,7.1,9.1,10.6
		c0.2,0.2,0.7,0,1.1,0l0,0l0.1,0.2c0.3,0.4,0.6,0.8,0.9,1.2c0,0.1,0.1,0.1,0.1,0.2l0,0c0.5,0.8,1,1.6,1.4,2.4l0,0
		c1.8,3.1,3.6,6.2,5.4,9.3l-0.1,0.1l0,0c0.3,0.4,0.5,0.8,0.8,1.2l0,0l0,0l0,0c0.6,1.2,1.2,2.5,1.8,3.7l0,0l0,0l0,0c0,0,0,0,0,0.1
		l0,0c0,0.1,0,0.2,0,0.3c0.1,0.5,0.1,1,0.2,1.4c0,0.2,0.1,0.4,0.2,0.5l0,0c1.9,5.4,4.1,10.6,5.8,16.1c0.3,0.8,0.5,1.5,0.7,2.3
		c1.7,5.9,3,11.9,3.9,17.9c1.1,6.8,1.7,13.7,2.5,20.5c-1.1,0-1.9,0-2.8,0v-0.1h0.1l0,0l0,0c-0.4-0.3-0.8-0.5-1.3-0.7
		c-1-2.9-3.2-4.4-6.2-5l0,0c-0.5-0.3-0.9-0.7-1.4-1v-0.1l0,0c-0.6-0.4-1.2-0.8-1.8-1.2l0,0l0,0c-1.7-1.2-3.3-2.5-5.2-3.4
		c-0.9-0.4-2.4-0.5-3.1,0c-0.2,0.1-0.3,0.4-0.3,0.7c0,0.1,0,0.1,0,0.2c-0.1,0.6,0,1.5,0.2,2.1c2.4,8.1,4,16.3,5.2,24.6
		c1.2,8.3,1.8,16.6,2.1,25c0.1,3.8-0.3,7.6-0.6,11.3c-0.4,5-1,9.9-1.7,14.9c-0.6,4.3-1.5,8.6-2.2,12.9l0,0l-0.1,0.2l0,0
		c-1.6,0.3-2.5-0.3-3.2-1.9c-1.4-3.3-3-6.4-4.8-9.5c-0.5-1-1.6-1.6-2.4-2.4l0.1-0.1l0,0l0,0l0,0l0,0c0-0.1,0-0.3-0.1-0.4l0,0
		c-0.4-2.4-1.3-4.4-3.8-5.4l-0.1-0.1l0.1-0.1l0,0l0,0l0,0c0-0.1,0-0.3,0-0.5c0-0.1,0-0.1,0-0.2c0-0.4,0-0.8-0.1-1.1
		c-1.8-2.9-3.6-5.8-5.7-8.5c-1.1-1.4-2.7-2.5-4.1-3.7v-0.1h0.1l0,0l0,0l0,0c-0.6-0.6-1.2-1.3-1.8-1.9l0,0c0-0.1,0-0.3,0-0.4
		c-0.2-2.2-1.6-3.4-3.7-3.9c0-0.1,0.1-0.3,0.1-0.4c0.2-1.3-0.5-1.8-1.8-1.5c0,0,0,0,0-0.1l0,0c-0.3-2.6-3-5-5.7-5.3V355
		c-0.3-0.4-0.6-0.8-0.9-1.3l0,0c-0.2,0.4-0.4,0.7-0.6,1.1l0,0l0,0l0,0l0,0l0,0c-0.3,0.6-0.8,1.1-1.1,1.7c-0.1,0.1-0.1,0.3-0.1,0.4
		s-0.1,0.3-0.1,0.4c0.1,9.5-1.6,18.7-3.7,27.9c-0.6,2.6-1.3,5.1-2,7.6c-0.4,1.3-0.8,2.6-1.2,3.8c0,0.1-0.1,0.3-0.1,0.4
		c-1.2,3.8-2.6,7.6-4.2,11.4c-0.3,0.8-0.6,1.5-1,2.3c-1.6,3.7-3.4,7.4-5.4,11c0,0,0,0,0,0.1c-0.1,0.2-0.2,0.5-0.3,0.8
		c-0.2,0.8-0.3,1.7-0.4,2.5l0,0l0,0l0,0c-0.2,0.4-0.5,0.8-0.7,1.2l0,0l0,0h0.1c-1,0.2-1.6,0.6-1.9,1.2c0,0.1-0.1,0.2-0.1,0.3
		c-0.1,0.4,0,0.9,0.2,1.5h-0.1c-0.6,0.4-1.2,0.8-1.9,1.3c-0.8-1.3-1.4-2.6-2.3-3.6c-1.7-1.8-3.6-3.4-5.4-5.1
		c-0.3-0.4-0.5-0.8-0.7-1.2l0,0l0,0l0,0l0,0h0.1c-0.7-1.2-1.1-2.7-2-3.7c-3.8-4.2-7.7-8.3-11.7-12.3c-0.6-0.6-1.6-0.7-2.5-1
		l-0.2-0.1c0.4-2.4-1.7-1.6-2.8-2.1l0,0c-0.5-0.3-0.9-0.7-1.4-1v-0.1h0.1l0,0l0,0l0,0l0,0h0.1c-0.8-0.3-1.5-0.7-2.3-1l0,0l0,0
		c-0.1,0.5-0.4,1-0.5,1.4s-0.2,0.7-0.2,1.1c1.1,8.8,2.1,17.5,1.3,26.5c-0.6,6.3-1.5,12.5-3.5,18.5c-0.5,1.4-1,2.7-1.6,4.1
		c-0.7,1.7-1.3,3.4-2,5.1l0,0l0,0v0.2h-0.2c-0.7-1.2-1.3-2.5-2-3.7c-1.1-1.6-2.3-3.1-3.4-4.7h-0.1c-0.3-2.8-1.8-4.5-4-4.5
		c-0.4-0.4-0.8-0.8-1.3-1.3c0-0.2,0-0.3,0-0.5c0.1-1.4-0.4-2.1-2.1-1.6v-0.1l0,0c-0.8-0.7-1.6-1.3-2.4-2l0,0l0,0l0,0v0.1
		c-0.6-0.4-1.2-0.7-1.8-1.1v-0.1c-0.6-0.4-1.2-0.7-1.9-1.1l0.1-0.1l0,0c-1.4-0.8-2.9-1.6-4.3-2.4V433v0.2l0,0V433v0.2
		c-0.4-0.2-0.8-0.5-1.2-0.7l0,0l0,0v0.1c-0.4-0.3-0.8-0.5-1.1-0.8l0,0l0,0l0,0v0.1c-0.4-0.2-0.8-0.5-1.2-0.7l0,0l0,0l0,0l-0.1,0.1
		c-0.1-0.4-0.2-0.9-0.4-1c-5.8-2.4-11.6-4.7-17.4-7.1h0.1l0,0c-0.2-0.2-0.5-0.5-0.7-0.7v0.1l0,0l0,0l0.1,0.2l0,0c-0.1,0-0.1,0-0.2,0
		c-0.6-0.4-1.2-0.8-1.8-1.2l-0.2-0.1c-0.5-0.5-1.1-0.9-1.6-1.4l0,0c-1-1.6-1.8-3.2-3-4.6c-1.6-1.8-3.4-3.4-5.1-5.2v-0.1
		c-1-1.8-2-3.6-3.1-5.4l0.1-0.1l0,0c-0.1-0.7-0.1-1.4-0.2-2.1c-2.2-8.6-4.3-17.2-6.5-25.8c-1.3-4.8-2.6-9.6-4.1-14.4
		c-0.2-0.7-1.5-1.2-2.2-1.8l0.1-0.1c-0.9-1.1-1.7-2.1-3-3.7c1.6-0.1,2.6-0.4,3.5-0.2c5.5,1.2,10.9,2.4,16.4,3.7
		c1.5,0.3,2.9,0.7,4.4,1.1l0,0l0,0l0,0l0,0l0,0c1.4,0.8,2.9,1.6,4.3,2.4h0.1c0.6,0.4,1.2,0.8,1.8,1.1l0.2,0.1l0,0l0,0l0,0
		c0,2.1,1,2.7,2.9,2.3v0.2h-0.2l0,0h-0.1c0.2,0.2,0.5,0.5,0.7,0.7l-0.1-0.1c0.2,0.2,0.5,0.5,0.7,0.7v-0.1v-0.1l0.1,0.1v-0.2h0.2l0,0
		c-0.6,2.1,0.7,2.1,2.1,2c0.5,0.5,1,1,1.4,1.5v0.2h-0.1l0,0h-0.1l0.1,0.1c1.2,2.1,2.3,4.2,3.5,6.3c0.5-0.1,0.9-0.1,1.4-0.2l0,0l0,0
		c0.4-1.9,1.2-3.8,1-5.7c-0.6-8.3-2.3-16.4-5.9-23.9c-1-2.1-2.7-3.9-4.1-5.9H380c-1.1-2.4-2.1-4.8-3.3-7.5c2.8,0.7,5.7,1.5,8.6,2.2
		l0,0l0,0l0,0l0,0l0,0l0,0l0,0c1.4,0.8,2.8,1.6,4.2,2.5h0.1c0.8,0.7,1.6,1.3,2.4,2l0,0V342l0,0l0,0l0,0l0,0c0.9,2.6,3.1,3.4,5.4,4.1
		c0,0,0,0,0.1,0l-0.1,0.2c0.4,0.2,0.9,0.5,1.3,0.7l0,0c0,0,0,0,0.1,0.1c0.8,2.4,2.1,4.3,4.9,4.6l0,0l0.2,0.1
		c0.4,0.4,0.8,0.7,1.1,1.1v0.2h-0.2l0,0h-0.1l0,0c0.2,0.2,0.5,0.5,0.7,0.7l-0.1-0.1l0,0l0.1-0.1l0.1,0.1l-0.1-0.1l0,0
		c0.4,0.3,0.8,0.5,1.2,0.8l0,0l0,0c0.1,0.3,0.2,0.7,0.3,1v-0.1l0,0c0.2-0.3,0.5-0.7,0.7-1v0.1c0-0.1,0.1-0.1,0.1-0.2
		c0.2-0.3,0.4-0.6,0.6-0.9c0.3-0.4,0.5-0.8,0.4-1.1c-2-8.5-4-17-6.4-25.4c-0.6-2.2-2.4-4.1-3.6-6.2l0,0l0,0l0,0l0,0
		c-1.2-2.7-2.3-5.4-3.6-8c-0.1-0.3-1-0.2-1.5-0.4l-0.1-0.2c-1.5-2.5-3-5-4.5-7.5c-0.1-0.2-0.9,0-1.3,0c-0.4-0.5-0.8-0.9-1.2-1.3
		c-0.3-1.3-0.6-2.5-1-4.4c3.9,1.9,7.5,3.7,11,5.5l0,0l0,0l0,0l0,0l0,0l0,0c0.8,1.1,1.5,2.3,2.5,3.2c0.8,0.7,2,1,3,1.5l0,0l0,0
		c0.3-1.2,1-2.5,0.8-3.5c-1-3.8-2.2-7.6-3.4-11.4c-3.1-9.4-9-17.3-15-25c-0.5-0.6-1.6-0.6-2.4-0.9c-0.4-0.4-0.8-0.8-1.2-1.3
		c-0.5-0.8-1-1.5-1.5-2.3l0,0l0,0l0,0h0.1c0.1-1.5-0.3-3.1,0.2-4.4c1.5-3.9,1.5-4.1-2.9-4.4c-0.7,0-1.4-0.1-2.1-0.3
		c-4.4-1.2-8.7-2.5-13.1-3.7h-0.1c-1.6-2-3.2-4-5-6.1c0.6-0.1,1.1-0.1,1.7-0.3c6.4-1.4,12.9-2.8,19.3-4.4c0.3-0.1,0.5-0.1,0.7-0.3
		c0.1,0,0.2-0.1,0.3-0.1c0.1-0.1,0.2-0.1,0.3-0.2c0.1-0.1,0.2-0.1,0.3-0.2c1.1-0.7,2.2-1.7,3.3-2.4l0,0l0,0l0,0c0,0,0,0,0,0.1
		c0.3-0.2,0.6-0.4,1-0.6c0,0,0,0,0.1,0c0.3-0.2,0.6-0.4,0.9-0.6s0.6-0.4,0.9-0.7c0.1-0.1,0.3-0.2,0.4-0.4c0.1-0.1,0.3-0.3,0.4-0.5
		c0.3-0.3,0.5-0.7,0.7-1c1.8-2.6,3.4-5.2,5-7.9c5.9-10,6.7-20.5,2.9-31.5c-1.1-3.3-2.1-6.5-3.3-9.9c3.1-1,5.1,0.7,7.2,2
		c1.5,0.9,3.1,1.8,4.6,2.7l0,0l0.2,0.1l0,0c0.3,0.8,0.3,1.8,0.8,2.3c10.2,10.2,12.1,26.1,6,38.5c-0.9,1.8-1.3,3.8-2,5.8
		c0,0,0,0.1-0.1,0.1v0.1c-0.4,0.6-0.7,1.2-1.1,1.8h-0.1l0,0l0,0l0,0c-0.4,0.3-0.8,0.6-1.2,0.9c-0.4,0.3-0.8,0.7-1.2,1.1
		c-1.3,1.2-2.2,2.7-2.5,4.7l0,0l-0.1,0.2l0,0c-0.4,0.3-0.9,0.6-1.3,0.8l0,0h-0.1c0.6,0.5,1.2,1.5,1.9,1.5c5.2,0.2,10.4-0.3,15.5,0.4
		c6.7,1,13.3,3,19.8,4.7c2.9,0.8,5.6,2,8.4,3c0.2,0.3,0.4,0.5,0.6,0.8l0,0v-0.1l0,0l0.1,0.1l-0.1-0.1h0.1c0.6,0.4,1.2,0.8,1.8,1.1
		v0.1c0.6,0.4,1.3,0.7,1.9,1.1l-0.1,0.1c0.4,0.3,0.8,0.5,1.2,0.7l0,0c1,0.8,2,1.7,3.1,2.5l0,0c0,0,0,0,0,0.1c0.3,0.7,0.5,1.5,0.9,2
		c3,3.8,6.1,7.5,9,11.4c1.8,2.4,3.3,4.9,4.9,7.3v0.1l0,0h-0.1l0,0c-0.1,0.6-0.2,1.3-0.4,2.1c-1.4-0.5-2.5-1.1-3.8-1.5
		c-9-2.7-18-5.4-27-8c-2.6-0.8-5.3-1.4-8-1.8c-0.1,0-0.3,0-0.4,0.1c0,0-0.1,0-0.1,0.1c0,0-0.1,0-0.1,0.1c-0.4,0.2-0.9,0.7-1.3,1
		c-0.1,0.1-0.2,0.1-0.2,0.2l0,0l0,0c0.2,0.6,0.1,1.4,0.5,1.8c2.4,2.4,4.9,4.8,7.4,7.2l0,0l0,0c0,0.1,0,0.3,0,0.5
		c0,0.3-0.1,0.6,0,0.8c0,0.1,0,0.2,0.1,0.2c4.2,5.4,8.5,10.7,12.8,16c0.1,0.2,0.7,0,1.1-0.1l0.1,0.2l0,0c0.4,0.6,0.7,1.2,1.1,1.9
		l0,0h0.1c0.4,0.6,0.8,1.2,1.2,1.8l0,0l0,0h0.1l0,0c-0.1,0.2-0.1,0.4-0.2,0.6c-0.2,0.8,0,1.4,1.4,1l0.1,0.1l-0.1,0.1l0,0
		c-0.3,0.9-0.3,1.6,0.1,2.1l0,0c0.1,0.1,0.1,0.2,0.2,0.3c0.3,0.2,0.6,0.4,1,0.5c0.2,0.1,0.3,0.1,0.5,0.1v0.1l0,0
		c-0.1,0.9,0,1.7,0.3,2.4c0.5,1.8,1.8,3.1,3.4,4.3l-0.1,0.1l0,0c0.2,1,0.3,2,0.6,2.9l0,0c1.6,4.6,3.3,9.2,5,13.9c0.4,1,0.8,2,1.2,3
		l0,0l0,0c0.5-0.1,0.9-0.1,1.4-0.2c4.3-12.7,3.4-25.5-0.7-38.7c2.9,1.1,5.4,2,7.9,2.9c3.1,1.2,6.2,2.5,9.3,3.7l0,0l0,0l0,0
		c0.4,0.3,0.8,0.5,1.2,0.8l0,0l0.1-0.1c1.2,0.9,2.5,1.7,3.7,2.6l0,0v-0.1c0.6,0.5,1.2,0.9,1.8,1.4l0,0l0.1-0.1
		c0.6,0.4,1.2,0.8,1.9,1.1l-0.1,0.1l0,0c0.4,0.3,0.8,0.5,1.2,0.7l0,0c0.4,0.6,0.8,1.1,1.2,1.7l0,0c0.2-0.5,0.5-1,0.8-1.5
		c0.1-0.2,0.2-0.4,0.3-0.6c0.1-0.1,0.1-0.3,0.2-0.4c0.1-0.3,0.2-0.6,0.2-1c0-0.6-0.1-1.1-0.2-1.7c-0.3-2.2-0.6-4.4-1.1-6.5l0,0
		c-0.2-1.1-0.5-2.1-0.8-3.2c-0.4-1.6-0.9-3.2-1.5-4.8c-0.5-1.6-1.1-3.1-1.7-4.7c-0.6-1.6-1.3-3.1-2-4.6c-0.5-1.2-1.7-2.2-2.6-3.3
		l0,0l0,0l0,0c-0.3-0.6-0.5-1.2-0.8-1.8l0,0l0,0l0,0c0.1-2.3-1.3-5.3-3.1-7.1c-0.6-0.6-1.2-1.1-1.8-1.4l-0.1-0.1
		c-0.4-0.6-0.8-1.2-1.2-1.8l0,0h-0.1c0.1-1.6-0.7-3.5-1.9-4.6c-0.7-0.7-1.5-1.1-2.3-1.3l-0.1-0.2l0,0c0.2-0.8,0.2-1.6-0.1-2
		c-0.3-0.3-0.8-0.5-1.6-0.3v-0.2h0.2c-0.4-0.6-0.5-1.5-0.7-2.3c-0.1-0.3-0.2-0.5-0.4-0.7c-0.4-0.5-1-0.7-2.1-0.5v-0.2l0.2-0.1l0,0
		l0,0c-0.2-0.6-0.3-1.4-0.6-2c0-0.1-0.1-0.2-0.1-0.2c-0.1-0.1-0.2-0.3-0.3-0.4c0-0.1-0.1-0.1-0.2-0.2
		C470.9,252.4,470.3,252.3,469.3,252.6l0.1-0.1L469.3,252.6L469.3,252.6L469.3,252.6z M455.8,363.9c0.5-6.9,1.5-13.9,1.1-20.8
		c0-1-0.1-2.1-0.3-3.1c0-0.1,0-0.2,0-0.3c-0.4-3-1-6-1.8-8.9c-0.1-0.4-0.2-0.8-0.3-1.2c-0.3-1.2-0.7-2.4-1.1-3.5l0,0
		c-0.1-0.4-0.3-0.7-0.4-1.1c-0.2-0.5-0.4-0.9-0.6-1.4c-0.3-0.6-0.7-1.3-1.1-1.9c-0.3-0.4-0.5-0.8-0.8-1.2c-0.9-1.2-2-2.3-3.2-3.3
		c-0.5-0.4-1-0.8-1.5-1.1c-0.5-0.4-1-0.7-1.6-1l0,0c-0.7-0.4-1.3-0.7-2-1.1c-0.6-0.7-1.2-1.3-1.8-2l0,0c-0.8-0.6-1.6-1.3-2.5-1.9
		c-0.3-0.2-0.6-0.4-0.9-0.6s-0.6-0.4-0.9-0.6c-0.6-0.4-1.2-0.8-1.8-1.2l0,0c-1.4-0.9-2.8-1.8-4.3-2.7c-0.5-0.3-1-0.6-1.5-0.8
		c-0.5-0.3-1-0.5-1.6-0.7c-0.3-0.1-0.5-0.2-0.8-0.3c-1.3-0.4-2.6-0.7-4.1-0.7c-0.9,0-1.8,0-2.8,0.2l0,0c0.6,0.8,1.1,1.5,1.6,2.2l0,0
		c0.5,0.7,1,1.4,1.5,2s0.9,1.3,1.4,1.9l0,0c0.5,0.6,0.9,1.2,1.3,1.8c0.6,1,1.2,2.1,1.8,3.1c0.6,1,1.3,2,1.9,3.1
		c1.4,2.5,2.9,4.9,4.3,7.4l0,0c2.1,3.7,4.1,7.4,6.2,11.1c4.8,10.6,9.6,21.3,14.8,32.9l0,0C454.9,366.3,455.7,365.1,455.8,363.9z"/>
	<path class="st3" d="M216,142.6L216,142.6C216,142.7,216,142.7,216,142.6c-0.4,1-0.9,2-1.3,3.1c-0.5,1.3-0.9,2.7-1.4,4l0,0v-0.1
		l0,0l0,0c-0.4-0.5-0.7-1.3-1.2-1.5c-4.8-2.6-9.6-4.9-14.6-6.6c-7.2-2.4-14.8-3.5-23.1-2.1c1.5-8,4.3-15.1,7.9-22
		c0.4-0.8,0.4-1.8,0.6-2.8l0.1,0.1l0,0c0.6-1,1.2-2.1,1.7-3.1l0,0v-0.2c1.8,0.5,1.6-0.5,1.2-1.6l0,0v-0.2c0.1,0,0.2,0,0.3,0
		c0,0,0,0,0.1,0c1.4,0.1,1.7-0.6,1.5-1.7c0-0.1,0-0.1,0-0.1c0-0.1,0-0.3-0.1-0.4l0.1-0.2c2.1,0,2.4-0.4,2.1-2.6l0,0
		c0.4-0.4,0.8-0.9,1.2-1.3c0.1,0.1,0.3,0.1,0.4,0.2l0,0l0,0c-0.1-0.1-0.2-0.3-0.2-0.4l0.2-0.1l0,0c1.2,0,2-0.4,2.7-1
		c0.8-0.8,1.4-1.9,1.8-3.1c0.4-0.3,0.8-0.5,1.2-0.8l-0.1-0.1l0,0c0.6-0.4,1.2-0.8,1.8-1.2L199,97l0,0c1.2-0.9,2.4-1.7,3.6-2.6
		l0.1,0.1l0,0c0.4-0.3,0.8-0.5,1.2-0.8l0.1,0.1l0,0l0,0c3.1-1,6.1-2.1,9.3-2.9c12-2.9,24.2-3.5,36.5-3c0.1,0,0.2,0,0.3,0
		c0.2,0,0.4,0.1,0.6,0.1c1.1,0.4,2.1,1.2,3.2,1.8c0.2,0.1,0.4,0.2,0.6,0.3c0.9,0.4,1.9,0.7,2.9,1l0,0l-0.1,0.1l0,0
		c1,0.6,2.1,1.2,3.1,1.8v0.1l0,0c1.1,0.6,2.1,1.2,3.1,1.8V95l0,0c0.4,0.4,0.8,0.9,1.2,1.3c0.1,0.1,0.2,0.2,0.3,0.2
		c0.2,0.2,0.4,0.3,0.6,0.4c1.9,1.1,3.9,1.8,5.7,2.9c1.7,1.1,3.4,1.9,5.1,2.5c9.5,3.5,18.6,0.2,27.6-4.5c0.2-0.1,0.2-0.3,0.3-0.6
		c0-0.1,0-0.1,0-0.2c0-0.1,0.1-0.2,0.1-0.3l0.1,0.2l0,0l0,0l0,0c1.2-0.7,2.4-1.4,3.6-2h0.1l0,0l0,0c1.4-0.8,2.8-1.7,4.3-2.5l0,0l0,0
		c1-0.6,2-1.3,3.1-1.9l0,0l-0.1-0.1c0.4,0.1,0.9,0.3,1.2,0.1c4.1-2.4,8.7-2.8,13.3-2.8c4.7,0,9.5,0.4,14.1-0.1
		c6.6-0.7,12.7,1,18.7,3.3c2.5,0.9,4.9,1.9,7.4,2.8l0,0l0.1-0.1c0.6,0.4,1.2,0.7,1.9,1.1l-0.1,0.1l0,0l0,0l0,0
		c2.5,1.8,5,3.6,7.5,5.5l0.2,0.1c0,0.2-0.1,0.3-0.1,0.5l0,0c0,0.1,0,0.3,0,0.4c0,0.2,0,0.4,0.1,0.6c0.3,0.7,1.2,0.7,2.3,0.5l0,0
		c0.3,0.8,0.5,1.7,0.9,2.4l0,0c0.6,1.3,1.5,2.2,3.5,2.2v0.2l-0.2,0.1l0,0l0,0c1.7,2.2,3.4,4.5,5.1,6.7h0.1l0,0
		c-0.1,0.2-0.2,0.4-0.2,0.6c0,0.1,0,0.2,0,0.3c0,0.2,0,0.4,0,0.6c0.1,0.8,0.8,1.3,2,1.5l0,0v0.1l0,0c0,0.7,0.1,1.4,0.2,2
		c0.1,0.8,0.4,1.6,0.8,2.3c0.5,1,1.4,1.8,2.6,2.4l0,0l0,0l0,0c0,0,0,0,0,0.1c0,0.3,0.1,0.5,0.1,0.8c0.1,0.5,0.1,0.9,0.2,1.4
		c0,0.3,0.1,0.6,0.1,0.9c0.1,0.3,0.1,0.7,0.2,1c1.1,3.9,2.4,7.8,3.5,11.3c-5.8,0.3-10.8,0.4-15.9,0.8c-7,0.5-13.8,2-20.1,5
		c-0.8,0.4-1.4,1.3-2,2l0,0l0,0c-1,0.6-2.1,1.2-3.1,1.8l0,0l0,0l0.2,0.1l-0.1,0.2c-0.5-1.4-1-2.8-1.4-4.2c-0.4-1.4-0.8-2.8-1.1-4.1
		l0,0c-1.4,0.5-2.8,1-4.1,1.6c-0.6,0.3-1,0.9-1.4,1.4c0,0,0,0,0.1,0l0,0c0,0,0,0-0.1,0v0.1l0,0l0,0c-0.6,0.4-1.2,0.8-1.8,1.2l0,0
		v0.1c-0.6,0.5-1.3,1.1-2,1.6l0,0l0,0l0,0l0,0c-2.9,0.3-7.6,5.3-8.3,8.7c0,0.2-0.1,0.4-0.1,0.6l0,0l0,0h-0.1l0,0
		c-0.6,0.4-1.5,0.7-1.8,1.3c-1.4,2.4-2.6,4.9-3.8,7.1c-1.7-1.4-3.4-2.8-5.1-4.2c-1.9-0.8-5.3,1.5-6.3,4c-0.1,0.3-0.2,0.6-0.3,0.9
		l0,0l0,0l0,0l0,0c-1.1-0.1-2.1-0.1-2.3,0.8c-0.1,0.3,0,0.6,0,1c0,0.1,0,0.2,0.1,0.3l0,0H320v-0.2l0,0c-0.8,1-1.7,2.1-2.5,3.1l0,0
		l0,0l0.1,0.1l0,0v0.1c-0.6-0.1-1.1-0.1-1.4,0.1c-0.1,0-0.2,0.1-0.3,0.1l0,0l-0.1,0.1c-0.2,0.1-0.3,0.4-0.4,0.6
		c-0.2,0.5-0.2,1.2-0.1,2l0,0v0.2c-1.2-0.3-1.8,0-2,0.5c0,0.1,0,0.2,0,0.3c-0.1,0.4,0,0.9,0.2,1.5v0.2c-0.9,0.2-1.6,0.5-2.1,1
		c-1.1,1-1.3,2.7-1.6,4.3l0,0h-0.1c-0.3,0.4-0.5,0.8-0.8,1.2l0,0l0,0l0,0l0.1,0.1l0,0c-0.3,0.4-0.6,0.8-0.8,1.1
		c-0.6,0.8-1.2,1.5-1.7,2.3c-0.3,0.4-0.5,0.8-0.7,1.3c-1.3,2.7-2.3,5.4-3.2,8.1c-2.9,8.8-3.7,18-2.3,27.4c0.1,0.4,0.2,0.8,0.3,1.2
		c0.1,0.1,0.1,0.3,0.2,0.4c0.7,1.5,1.9,3,2.7,4.5v0.1h-0.1l0,0l0,0l0,0l0,0l0,0c0.5,3,1.4,5.1,2.9,6.5c1.1,1.1,2.6,1.7,4.5,2l0,0
		l-0.1,0.1l0,0l0,0c0.2,0.2,0.5,0.5,0.7,0.7l0,0l0,0l0.1-0.2l0.3,0.1c0,0.2,0,0.5-0.1,0.7c0,0.1-0.1,0.2-0.1,0.3v0.1
		c-0.1,0.1-0.1,0.3-0.2,0.4l0,0c-0.1,0.1-0.2,0.3-0.3,0.4c-0.6,0.6-1.4,0.8-2.4,0.8c-2.4,0-4.7-0.2-7.1-0.2c-0.6,0-1.5,0.3-1.9,0.7
		c-0.1,0.1-0.1,0.1-0.1,0.2l0,0c-0.3,0.4,0.1,1.6,0.6,2c0.7,0.5,1.8,0.7,2.7,1l0,0l0,0l0,0c0.8,0.6,1.6,1.3,2.4,1.9l0,0l0,0
		c0.4,0.3,0.9,0.7,1.3,1v0.1l0,0l0,0l0,0l0,0l0,0c1,1.8,2,3.5,3,5.3c-3.3,0.7-6.7,1.2-10,2.1c-1.7,0.5-3.2,1.5-4.8,2.4l0,0l0,0
		l-0.2-0.1l0.1,0.1h-0.2h0.1c-2.1,0.8-3.5,2.6-3.9,4.8c-0.2,0.8-0.2,1.7-0.1,2.6l0,0l-0.1-0.1l0,0c-0.3,0.4-0.5,0.8-0.8,1.2l0,0l0,0
		c-1.7,0-3.5,0.1-5.2,0.1l0,0l0,0l-0.1,0.1l-0.2-0.1c-0.4-0.4-0.8-0.7-1.1-1.1v-0.2l0,0l0,0c-0.3-1-0.5-2-0.9-3
		c-0.2-0.6-0.4-1.2-0.7-1.7c-0.5-1-0.7-2.4-1.8-2.8c-0.4-0.1-0.8-0.1-1.4,0l0,0c-0.3-0.2-0.6-0.5-0.8-0.8c-0.5-0.5-0.9-0.9-1.5-1.1
		c-0.2-0.1-0.5-0.2-0.7-0.2c-0.7-0.2-1.5-0.4-2.2-0.5c-0.5-0.1-1-0.2-1.5-0.3c-0.5-0.1-1-0.3-1.5-0.4c-1.8-0.6-3.7-1.2-5.3-2.3
		c-0.2-0.1-0.3-0.2-0.5-0.4c-0.8-0.7-0.8-1.4-0.1-2c0.1-0.1,0.3-0.3,0.5-0.4s0.4-0.2,0.7-0.3c2.2-0.8,4.4-1.6,6.5-2.6
		c0.2-0.1,0.4-0.3,0.6-0.5c0.5-0.5,0.9-1.1,1.3-1.7c0.1-0.1,0.2-0.2,0.3-0.3l0,0c-1.1-0.6-2.1-1.5-3.2-1.6c-1.9-0.3-3.9,0-5.8-0.2
		c-0.2,0-0.4-0.1-0.6-0.1c-0.4-0.2-0.9-0.4-1.2-0.7c-0.2-0.1-0.3-0.3-0.3-0.5c0-0.1,0-0.2,0-0.4c0-0.1,0.1-0.2,0.1-0.2
		c0.2-0.4,0.5-0.9,0.9-1.3c0.1-0.1,0.1-0.1,0.2-0.2c1.9-1.5,3.6-3.3,4.9-5.1l0,0c0.6-0.7,1-1.5,1.5-2.3c2-3.6,3.2-7.6,3.6-11.9
		c1-10.3-0.9-20.2-4.8-29.7c-0.1-0.1-0.1-0.3-0.3-0.4c0-0.1-0.1-0.1-0.2-0.2c-0.3-0.3-0.8-0.6-1.1-0.9l0,0l0,0v-0.2h0.2l0,0l0,0
		c-0.7-1.4-1.3-2.8-2-4.3l0.1-0.1l0,0l0,0c-0.1-0.6-0.3-1.2-0.5-1.8l0,0c-0.4-1.2-0.8-2.3-1.4-3.4l0,0c-1.4-2.8-3.2-5.3-5.3-7.6
		c-0.1-0.1-0.6,0-0.9,0l0,0l0,0l0,0c-1.5-2.1-2.9-4.4-4.7-6.4l0,0c-0.4-0.4-0.9-0.7-1.5-0.9c-0.5-0.1-0.9-0.3-1.4-0.4
		c-0.1,0-0.3-0.1-0.4-0.1l0,0l0,0v-0.1l0,0l0,0l0,0c-1.3-1-3.1-3-3.9-2.7c-0.5,0.2-1,0.5-1.5,0.9c-1.2,0.8-2.2,1.9-3.3,2.9
		c-0.2,0.2-0.4,0.4-0.6,0.6c-0.2-0.2-0.4-0.4-0.6-0.6c-0.4-0.4-0.8-0.8-1.3-1.2c-0.2-0.2-0.4-0.4-0.6-0.6h0.1l0,0l0,0
		c-0.5-1-0.1-2.6-0.8-3.4l-0.1-0.1c-0.3-0.3-0.9-0.5-1.7-0.4l-0.1-0.1l0.1-0.1c-0.3-2.7-1.2-4.8-4.3-5.3l-0.1-0.2
		c0.4-1.6-0.1-2.2-1.7-1.7v-0.3h0.3l0,0c-0.2-0.2-0.4-0.5-0.7-0.7l0,0v0.3H229l0,0c-0.3-0.9-0.8-1.5-1.3-2.1c-1-1-2.3-1.6-3.8-2
		c-0.2-0.1-0.5-0.1-0.7-0.2h-0.1l0,0l0,0l0,0c-1.9-1.2-3.9-2.5-5.8-3.7l0,0C216.4,141.9,216.2,142.2,216,142.6L216,142.6L216,142.6
		L216,142.6z"/>
	<path class="st4" d="M420.4,137.5c1.1-1.6,2.4-3,3.2-4.7c3.2-6.7,6.2-13.4,9.3-20.1c0.4-0.6,0.8-1.2,1.1-1.8c1-2.5,2-4.9,3.1-7.4
		l0,0c0.8-1.4,1.7-2.6,2.9-3.5l0,0c0.5-0.4,1-0.8,1.6-1.2l0,0c0.3-0.2,0.5-0.3,0.8-0.5c0.5-0.3,0.9-0.5,1.4-0.8s1-0.5,1.5-0.8
		c1.7-0.8,3.4-1.7,5.1-2.7l0,0c-1.6-0.9-2.6-1.7-3.7-2c-3.2-0.9-6.4-1.8-9.7-2.4c-1.7-0.3-1.9-0.8-1.1-2.1c3.3-3.1,6.6-6.1,9.9-9.2
		l0,0l0,0c0.3-0.3,0.6-0.6,0.9-0.9c1.8-1.4,3.7-2.9,5.5-4.3c0.7-0.5,1.5-1,2.2-1.6c0.6-0.4,1.2-0.8,1.7-1.2c1.3-0.9,2.6-1.7,3.9-2.6
		c0.3-0.2,0.7-0.3,1-0.5c5.2-2.5,10.4-5,15.6-7.5l0,0c0.7-0.5,1.4-1,2.1-1.5c2.4-2.5,4.7-5.1,7-7.6l0,0c1.4-3.4,2.9-6.9,4.3-10.3
		l0,0c-0.3-0.1-0.5-0.3-0.7-0.4c-3.5,2-7,4.1-10.5,6.1l0,0l0,0c-12.3,5.8-24.6,11.8-36.9,17.4c-8.6,3.9-17.4,7.4-26.1,11l0,0
		c-0.6,0.4-1.2,0.8-1.8,1.2l0,0c-1.7,1.7-3.5,3.4-5.2,5.2c-0.1,0-0.1,0-0.2,0.1c-0.1,0-0.1,0.1-0.1,0.2c-0.1,0.1-0.1,0.1-0.2,0.2
		c-0.2,0.2-0.5,0.4-0.6,0.7c-9.4,15.1-9,30.4-0.5,45.8c0.8,1.2,1.6,2.4,2.4,3.6c1,1.2,2.1,2.5,3.1,3.7c3.2,3.5,4.5,4.1,7.2,2.8
		C420.2,137.6,420.3,137.6,420.4,137.5L420.4,137.5z M309.7,394.7L309.7,394.7L309.7,394.7c-0.2-0.1-0.3-0.3-0.4-0.4
		c-0.4-0.4-0.8-0.8-1.2-1.2c-0.5-0.5-1.1-1-1.7-1.4c-5.6-3.1-11.3-2.9-16.8,0.1c-1.9,1.1-3.3,1.1-5.3,0.1c-6-2.8-12.1-3.3-18,0.4
		c-0.8,0.5-1.5,1.1-2,1.8l0,0c-0.3,0.4-0.6,0.9-0.8,1.4c-0.1,0.1-0.1,0.3-0.1,0.4c-0.3,0.8-0.3,1.6-0.3,2.6c0.1,1.2,0.3,2.4,0.6,3.5
		c1,3.3,3.2,5.8,6.4,7.6l0,0l0,0l0,0l0,0c0.4,0.2,0.8,0.5,1.2,0.7c0.9,1,1.7,1.9,2.6,2.9c1.6,1.4,3.3,2.7,4.9,4.1
		c4.7,4.3,10.8,4.7,14.8,0.9c0.7-0.6,1.3-1.2,2-1.7l0,0l0,0l0,0c1.8-1.6,3.7-3.3,5.5-4.9l0,0l0,0l0,0c2.5-2.1,5.4-4,7.6-6.4
		c0.3-0.4,0.6-0.7,0.9-1.1c0.7-0.9,1.3-1.9,1.6-3C312,399.1,311.7,396.8,309.7,394.7L309.7,394.7L309.7,394.7L309.7,394.7z
		 M277,290.5L277,290.5c-0.1-1.8-0.7-3.1-1.8-4c-0.2-0.2-0.5-0.4-0.8-0.5c-0.7-0.4-1.5-0.7-2.5-0.9c-0.6-0.3-1.2-0.5-1.8-0.8
		c-1.3-0.7-2.5-1.4-3.8-2.1l0,0c-1.1,1.8-2.1,3.2-3,4.6l0,0c-0.5,0.6-0.9,1.2-1.4,1.7c-0.2,0.2-0.4,0.4-0.5,0.5
		c-0.8,0.7-1.6,1.3-2.5,2l0,0c-0.2,0-0.4,0.1-0.5,0.2c-0.2,0.1-0.4,0.3-0.6,0.4l0,0l0,0c-2.9,1.2-5.4-0.1-7.9-1.3l0,0l0,0
		c-0.2-0.2-0.4-0.4-0.6-0.5c-0.6-0.6-1.3-1.2-1.9-1.8c-0.2-0.2-0.4-0.4-0.6-0.6l0,0l0,0c-2.8-5.4-2.3-10.4-0.6-15.4
		c0.2-0.6,0.4-1.2,0.7-1.8c0.4-0.9,0.7-1.8,1.1-2.7c0,0,0,0,0-0.1c0.3-0.6,0.5-1.2,0.8-1.8c0.1-0.3,0.3-0.6,0.4-0.9l0,0
		c-0.6-0.1-1.1-0.2-1.6-0.3c-0.6-0.1-1.1-0.2-1.7-0.3c-1.6-0.3-3.3-0.4-4.9-0.6c-2.9-0.2-5.7-0.3-8.5-0.1c-0.9,0.1-1.8,0.1-2.7,0.3
		c-0.3,0-0.5,0.1-0.8,0.1c-2.1,0.3-4.2,0.7-6.3,1.3c-0.6,0.2-1.2,0.3-1.8,0.5l0,0c-1.2,0.3-2.4,0.6-3.6,1c-1.3,0.4-2.6,0.9-3.7,1.7
		c-0.3,0.2-0.5,0.3-0.7,0.5c-0.1,0.1-0.2,0.2-0.4,0.3c-0.1,0.1-0.2,0.2-0.3,0.3c-0.8,0.7-1.5,1.6-2,2.8c-0.1,0.3-0.3,0.5-0.4,0.8
		c-0.4,0.7-0.8,1.5-1.1,2.2c-0.4,0.8-0.7,1.6-1,2.3c-0.1,0.3-0.2,0.5-0.3,0.8c-0.1,0.4-0.2,0.8-0.3,1.1c-0.1,0.3-0.2,0.6-0.3,0.9
		c-0.3,0.9-0.5,1.8-0.7,2.7c-0.2,0.7-0.3,1.3-0.5,2c-0.2,0.9-0.4,1.9-0.6,2.8c-0.3,1.5-0.6,2.9-0.8,4.4c-0.1,0.3-0.1,0.6-0.1,0.9
		c-0.1,0.8-0.2,1.6-0.3,2.4s-0.2,1.5-0.2,2.3c-0.5,4.8-0.4,9.6,0.3,14.5c0.9,6.6,3,12.8,6.7,18.2c0.6,0.9,1.3,1.8,2,2.7
		c0.7,0.9,1.4,1.7,2.2,2.5v0.1c0.4,0.6,0.9,1.1,1.3,1.7c0.2,0.2,0.4,0.4,0.6,0.6c1.2,1,2.5,2.1,3.7,3.1c0.2,0.2,0.4,0.3,0.7,0.5
		c0.6,0.3,1.2,0.5,1.8,0.8c4.8,2.8,10.2,3.1,15.3,2.1c3.9-0.7,7.6-1.8,11.2-3.1l0,0c0.7-0.3,1.4-0.5,2.2-0.8c5.1-1.9,10-4.3,15-6.5
		c2.1-1,4.2-1.9,6.4-2.8c0.6-0.2,1.2-0.5,1.8-0.7c0.2-0.1,0.4-0.2,0.6-0.3l0,0c3.7-1.5,7.5-2.6,11.6-2.1c1.6,0.2,3.3,0.3,5,0.3l0,0
		c1.3,0,2.5,0.1,3.7,0.1l0,0c0.4,0,0.8,0,1.2,0.1c0.1,0.1,0.3,0.2,0.5,0.1c4,2,7.9,4,11.9,6c0.6,0.3,1.2,0.5,1.8,0.8
		c7.6,2.9,15.1,6.2,22.9,8.5c2.9,0.9,5.9,1.1,8.8,0.8c2.2-0.3,4.4-0.8,6.5-1.7c1.3-0.6,2.6-1.2,3.9-2l0,0l0,0l0,0
		c0.6-0.4,1.2-0.8,1.9-1.2l0,0c0.7-0.5,1.4-0.9,2-1.4c0.2,0,0.3-0.1,0.3-0.3c1.3-1.7,2.6-3.4,3.9-5.1l0,0l0,0
		c1.9-3.7,3.7-7.4,5.6-11.1l0,0c0.1-0.4,0.3-0.9,0.5-1.3l0,0c2-4.1,3.1-8.5,3.7-13c0.1-0.8,0.2-1.6,0.3-2.4c0.1-1.2,0.2-2.5,0.3-3.7
		c0.1-3-0.1-5.8-0.7-8.6c-0.1-0.6-0.2-1.2-0.4-1.7c-0.1-0.3-0.1-0.6-0.2-0.9c-0.3-1.1-0.6-2.3-1-3.4c-0.2-0.6-0.4-1.1-0.5-1.7
		c-0.7-2-1.4-3.9-2.1-5.9l0,0c-0.2-0.6-0.4-1.1-0.6-1.7c-0.1-0.3-0.2-0.6-0.3-0.9c-0.2-0.5-0.4-1.1-0.6-1.7
		c-0.3-0.8-0.6-1.7-0.9-2.5c0-0.1,0-0.1-0.1-0.2s-0.1-0.2-0.3-0.3c0-0.1-0.1-0.1-0.1-0.2c-0.1-0.1-0.2-0.2-0.3-0.3
		c-0.1-0.1-0.2-0.2-0.3-0.3c-1-1.1-2-2.1-3-3.2l0,0c-0.2-0.2-0.4-0.3-0.6-0.5l0,0c-1.9-0.8-3.7-2-5.7-2.4c-0.9-0.2-1.9-0.4-2.8-0.6
		c-1.9-0.4-3.8-0.7-5.7-0.9c-1-0.1-1.9-0.2-2.9-0.2c-2.6-0.1-5.1,0-7.7,0.1c-1.1,0-2.2,0.1-3.3,0.2c-1.6,0.1-3.3,0.2-4.9,0.3
		c-0.8,0-2.7,0.1-1.2,1.9c0.2,0.4,0.4,0.8,0.6,1.2l0,0l0,0c0.4,1,0.8,2.1,1.2,3.1c2.3,6.3,3.2,12.4-1.1,18.3c0,0,0,0,0.1-0.1
		c0,0,0,0-0.1,0.1c-0.2,0.2-0.4,0.4-0.5,0.6c-0.6,0.4-1.2,0.9-1.8,1.3c-0.4,0.2-0.8,0.5-1.2,0.7l0,0l0,0c-2.1,0-4.1,0-6.2,0
		c-0.1-0.1-0.3-0.2-0.4-0.1l0,0c-0.6-0.4-1.3-0.8-1.9-1.2l0,0l0,0l0,0c-1.8-2.4-3.5-4.8-5.3-7.1c0,0,0,0-0.1-0.1c0,0-0.1,0-0.1-0.1
		h-0.1c-0.2-0.1-0.5-0.1-0.7-0.1l0,0c-0.6,0.3-1.2,0.5-1.8,0.8l0,0l0,0c-1.5,0.6-2.9,1.3-4.4,1.9c-0.5,0.2-1,0.4-1.5,0.6
		c-0.7,0.3-1.3,0.6-1.7,1c-0.6,0.6-0.8,1.5-0.4,2.7l0,0c-0.3,0.6-0.5,1.2-0.8,1.7l0,0c-0.4,0.3-0.7,0.6-1.1,1l0,0
		c-0.4,0.3-0.8,0.6-1.1,0.9c-3.4,2.5-7.2,3.7-11.8,2c-0.8-0.4-1.6-0.9-2.4-1.3l0,0c-0.5-0.5-1-1-1.5-1.6
		C278.1,291.5,277.6,291,277,290.5z M254.7,438c0.1,0.1,0.2,0.1,0.3,0.2c0.3,0.3,0.7,0.5,1,0.5c2.3-0.7,4.6-1.5,6.9-2.2l0,0l0,0
		c-0.4-0.8-0.9-1.6-1.3-2.4l0,0c-0.6-1-1.1-2-1.6-3l0,0c-0.3-0.6-0.6-1.2-0.9-1.8l0,0c-0.3-0.6-0.5-1.2-0.7-1.8
		c-0.1-0.2-0.1-0.4-0.2-0.6c-0.1-0.4-0.2-0.9-0.3-1.3c-0.1-0.4-0.2-0.8-0.3-1.3c-0.1-0.5-0.1-0.9-0.2-1.3c0-0.4-0.1-0.9-0.1-1.3
		c-0.2-1.8-0.3-3.6-0.6-5.3c0-0.1-0.1-0.3-0.1-0.4c-0.3-0.9-1-1.9-1.7-3.4c-0.9,1.7-1.4,2.8-1.9,3.8c-0.2,0.4-0.3,0.9-0.5,1.3
		c-2.7,6.7-1.3,13,1.8,19.2C254.3,437.2,254.5,437.6,254.7,438L254.7,438z M187.8,107.1c-0.6,0.8-1.2,1.5-1.8,2.2l0,0l0,0l0,0v0.2
		l0,0l0,0c-0.4,0.5-0.8,1.1-1.2,1.6l0,0l0,0l0,0v0.2l0,0c-0.6,1.1-1.2,2.1-1.7,3.1l-0.1-0.1l0,0c-0.5,0.8-1,1.5-1.4,2.3
		c-0.2,0.3-0.3,0.5-0.5,0.8c-0.6,1-1.2,2.1-1.7,3.2l0,0c-2.6,6.5-4.9,13-7.5,20.2l0,0c9.7-1.9,18.2-1.3,26.4,1.9
		c5.1,2,10,4.4,15,6.6l0,0l0,0v0.1l0,0l0,0c0.6,0.5,1.2,1,2.3,1.8l0,0c0.2-3.3,0.3-6.1,0.4-8.9c0.9,0.4,1.8,0.7,2.8,1.1
		c1.2,0.5,2.5,1,3.7,1.5l0,0l0,0l0,0c2,1.4,3.9,2.9,5.9,4.3l0,0l0,0l0,0l0,0h0.3v-0.3c0.2,0.2,0.4,0.5,0.7,0.7h-0.3v0.3l0,0
		c0.6,0.6,1.1,1.1,1.7,1.7l0.1,0.2c1.4,1.8,2.8,3.5,4.3,5.3l-0.1,0.1l0.1,0.1c0.9,1.3,1.8,2.7,2.7,4h-0.1c0.6,1.8,1.2,3.7,2,6l0,0
		c2-2.7,3.6-5,5.3-7.3c0.8,0.3,1.5,0.7,2.3,1l0,0c0.7,0.3,1.5,0.7,2.2,1v0.1l0,0l0,0c2.7,2.6,5.4,5.2,8,7.8l0,0l0,0l0,0l0,0l0,0
		c2.7,4.3,5.3,8.6,8,12.9l0,0l0,0l-0.1,0.1l0,0c0.3,0.7,0.7,1.4,1,2.1s0.7,1.4,1,2.1h-0.2l0,0l0,0v0.2l0,0c0.1,0.3,0.2,0.6,0.3,0.9
		c0.2,0.6,0.4,1.2,0.5,1.8c0.1,0.3,0.2,0.6,0.3,0.8c2.6,7.1,4.3,14.3,4.3,22c0,10-2.7,18.7-11,25c-1.1,0.8-1.4,1.8-0.7,2.6
		c0,0.1,0.1,0.1,0.2,0.2s0.1,0.1,0.2,0.2c0.2,0.1,0.4,0.3,0.6,0.4c1.3,0.7,2.8,1.2,4.2,1.4c2.1,0.2,4.1,0.1,6.2,0.1
		c0.1,0.4,0.3,0.7,0.4,1.1c-2.2,1-4.4,1.9-6.5,3.1c-1.5,0.8-2.8,1.9-4.3,2.9l0,0c0.2,0.2,0.3,0.3,0.5,0.5c0.6,0.6,1.1,1.2,1.6,1.8
		c0.6,0.6,1.2,1.1,1.9,1.4c3.9,1.5,7.9,2.4,11.9,3.6l0,0c0.6,0.9,1.1,1.8,1.7,2.7c1,1.6,2,3.2,3,4.7v0.2l0,0l0,0
		c0.4,0.4,0.8,0.7,1.1,1.1l0.2,0.1l0,0l0.1-0.1c0.2,0.2,0.4,0.4,0.6,0.5c0.1,0.1,0.2,0.2,0.3,0.2c0.1,0.1,0.2,0.1,0.3,0.2
		c0.1,0,0.2,0.1,0.3,0.1c1.2,0.5,2.4,0,3.6-1.2l0,0l0,0l0,0c0.3-0.4,0.5-0.8,0.8-1.2l0.1,0.1l0.2-0.1l0,0v-0.1
		c0.2-0.2,0.3-0.4,0.5-0.6l0,0c1.1-2.2,2.3-4.4,3.4-6.5l0,0l0,0l0,0l0,0c2.2-0.6,4.4-1,6.6-1.7c2.7-0.8,5.4-1.8,8.1-2.7l0,0
		c0.7-0.3,1.2-0.7,1.4-1.1c0.1-0.1,0.1-0.3,0.2-0.4c0.1-0.7-0.3-1.4-1.3-2.1c-1-0.8-2.2-1.2-3.4-1.8v-0.1l0,0
		c-0.5-0.3-0.9-0.7-1.3-1l0,0l0,0l0,0c-0.8-0.6-1.6-1.3-2.4-1.9l0,0l0,0l0,0l0,0c0,0,0,0,0.1,0c-0.6-0.7-1.2-1.4-1.6-1.9
		c3.5-0.3,6.8-0.5,10.1-1.1c1-0.2,1.6-0.5,1.9-0.9c0,0,0.1-0.1,0.1-0.2c0.2-0.6-0.3-1.3-1.4-2.3l0,0l0,0l0,0h-0.3l0,0l-0.1,0.2
		c-0.2-0.2-0.4-0.4-0.6-0.6l-0.1-0.1l0.1-0.1l0,0l0,0l0,0c0,0,0,0,0.1,0c-2.5-2.8-4.9-5.7-7.4-8.5h0.1l0,0l0,0v-0.1v-0.1
		c0,0.1,0.1,0.1,0.1,0.2c-0.7-1.9-1.7-3.7-2-5.7c-1.1-7.7-1.3-15.5,1-23c0.2-0.8,0.5-1.5,0.7-2.3c0.6-1.8,1.2-3.5,1.9-5.3
		c0.5-1.2,0.9-2.4,1.4-3.6c0.9-2.2,1.7-4.4,2.5-6.7l0,0l-0.1-0.1l0,0c0.2-0.4,0.5-0.8,0.7-1.2h0.1c1.2-1.8,2.4-3.5,3.6-5.3l0,0l0,0
		v-0.2c0.3-0.4,0.6-0.8,0.9-1.1c0.3-0.4,0.6-0.7,0.9-1.1l0,0l0,0l0,0l0,0v-0.2l0,0c0.8-0.9,1.6-1.9,2.4-2.8l0,0l0,0v-0.1l0,0l0,0
		l-0.1-0.1l0,0c0.9-1,1.7-2.1,2.5-3.1v0.2l0,0h0.2l0,0c0.7-0.7,1.4-1.3,2.2-2l0,0l0,0l0,0c0.2-0.2,0.4-0.4,0.6-0.5
		c0.6-0.5,1.2-1.1,1.9-1.5c0.6-0.4,1.3-0.8,2-1.3l0,0c0.7-0.4,1.4-0.8,2-1.2c1.7,2.1,3.4,4.2,5.2,6.4l0,0c0.5-1,1-1.9,1.4-2.9
		c0.5-0.9,0.9-1.9,1.4-2.8c0.7-1.4,1.4-2.8,2.1-4.1c0.2-0.4,0.4-0.9,0.6-1.3l0,0h0.1l0,0l0,0c2.8-3.1,5.6-6.2,8.4-9.3l0,0l0,0l0,0
		l0,0l0,0c0.7-0.5,1.3-1.1,2-1.6l0,0V145c0.6-0.4,1.2-0.8,1.8-1.2l0,0l0,0l0,0v-0.1l0,0c1.7-0.7,3.4-1.3,5.1-2c0.3,3.1,0.6,6,1,9.2
		c0.6-0.6,1.1-1.1,1.5-1.5c0.1-0.1,0.3-0.3,0.4-0.4l0,0l0,0l0.1-0.2l0,0l-0.2-0.1c1-0.6,2.1-1.2,3.1-1.8h0.1l0,0l0,0
		c0.9-0.5,1.9-0.9,2.8-1.3s1.9-0.8,2.8-1.1h0.1c8.8-3.1,18-4,27.4-3.9c2,0,4,0.3,7,0.5l0,0l0,0c-2.2-6.2-4.3-11.8-6.3-17.4l0,0l0,0
		l0,0l0,0c-1.2-2.2-2.4-4.5-3.5-6.8l0,0v-0.1l0,0l0,0l0,0l0,0c-0.6-1-1.2-2-1.8-3l0,0h-0.1c-1.7-2.2-3.4-4.5-5.1-6.7l0,0h0.2v-0.2
		l0,0l0,0l0,0l0,0c-1.5-1.6-2.9-3.1-4.4-4.7c0,0,0,0,0,0.1l0,0l0,0l0,0l0,0l0,0c-0.8-0.6-1.5-1.3-2.2-1.9l0,0l-0.2-0.1
		c-2.5-1.8-5-3.6-7.5-5.4l0,0l0.1-0.1l0,0l0,0c-0.6-0.4-1.3-0.7-1.9-1.1l-0.1,0.1c-5.6-4.3-12.2-6.6-19.1-7.1
		c-8-0.6-16.1-0.4-24.1,0c-3.9,0.2-8.2,0.2-11.2,3.5c-0.1,0.1-0.2,0.2-0.3,0.3l0,0l0.1,0.1l0,0c-1,0.6-2,1.2-3,1.9l0,0l0,0l0,0
		c-1.4,0.8-2.8,1.7-4.2,2.5h-0.1l0,0l0,0c-1.2,0.7-2.4,1.3-3.5,2l0,0l-0.1-0.2l0,0l0,0l0,0c-1.8,0.7-3.7,1.5-5.5,2.2
		c-0.6,0.2-1.2,0.5-1.8,0.8c-8.2,3.7-16.3,3.9-24.3-0.4c-3-1.6-6.2-3-9.3-4.5l0,0l0,0c-1-0.6-2.1-1.2-3.1-1.8l0,0V93l0,0
		c-1-0.6-2.1-1.2-3.1-1.8l0,0l0,0l0.1-0.1l0,0c-1.7-1.3-3.3-3.7-5.1-3.8c-6.6-0.6-13.2-0.7-19.8-0.4c-4.7,0.2-9.4,0.8-14,1.8
		c-0.6,0.1-1.3,0.3-1.9,0.4c-1.1,0.3-2.1,0.6-3.2,0.9c-1.5,0.5-3,1.1-4.4,1.7c-1.6,0.7-3.3,1.4-4.9,2l0,0v-0.1l0,0
		c-0.4,0.3-0.8,0.5-1.2,0.8l0,0l-0.1-0.1l0,0c-1.2,0.9-2.4,1.7-3.6,2.6l-0.1-0.2l0,0c-0.6,0.4-1.2,0.8-1.8,1.2l0,0l0,0l0.1,0.1
		c-0.4,0.3-0.8,0.5-1.2,0.8l0,0l0,0c-1.5,1.3-3,2.7-4.5,4l0,0l-0.2,0.1l0,0l0,0c0,0,0,0,0,0.1s-0.1,0.2-0.1,0.2l0,0
		c-0.4,0.4-0.8,0.9-1.2,1.3l0,0c-0.7,0.8-1.4,1.7-2.1,2.6l0,0l0,0L187.8,107.1L187.8,107.1z M44,314.4L44,314.4c0-0.1,0-0.1,0-0.1
		s0,0,0-0.1c0.6-0.4,1.2-0.9,1.8-1.3l0,0l0,0v0.1c2.1-0.8,4.2-1.6,6.8-2.5c-0.3,1.5-0.4,2.4-0.6,3.2c-0.2,0.8-0.5,1.7-0.7,2.5
		c-3.5,12.8-5.4,26-6.2,39.2c-0.8,13.4,0.4,26.7,3.1,39.9c0.7,3.2,0.8,7,4.9,8.7l0,0c0.2-0.4,0.4-0.8,0.7-1.3l0,0
		c0.2-0.4,0.4-0.9,0.6-1.3l0,0c0.3-0.6,0.5-1.3,0.7-1.9c0,0,0,0,0-0.1l0,0H55c0,0,0.1,0,0.1-0.1H55c0.8-1.4,1.6-2.8,2.5-4.2l0,0l0,0
		l0,0c1.1-2,2.1-4,3.2-6V389c1.2-2.1,2.4-4.1,3.6-6.1h0.1c1-1.6,2-3.3,3-4.9h0.1c0.4-0.6,0.8-1.2,1.1-1.8h0.1c0.3-0.4,0.7-0.9,1-1.3
		l0,0c0.2-0.4,0.5-0.8,0.7-1.2h0.1c1.8-2.4,3.7-4.8,5.5-7.2v-0.2h-0.1v-0.1l0,0c0.8-0.8,1.6-1.6,2.4-2.4l0,0
		c1.5-1.6,2.9-3.3,4.4-4.9l0.1,0.2H83c1.1-1.1,2.3-2.1,3.4-3.2l0,0c0.7-0.4,1.4-0.7,1.8-0.9c1.2,8.7,2,17.4,3.7,26
		c2.3,11.8,5.9,23.3,11.5,34v0.1l0,0l0,0l0,0l0,0c1.6,3,3.3,6,4.9,9.1l0,0c0,0,0,0,0.1,0l0,0c0,0,0,0,0,0.1l0,0c0,0,0,0-0.1-0.1
		c0,0,0,0,0,0.1l0,0c1.4,2.7,2.7,5.4,4.3,8.7c2.1-3,3.8-5.4,5.5-7.8V425H118v-0.1h-0.1c0.8-0.9,1.7-1.8,2.5-2.8V422v-0.1h-0.1v-0.1
		l0,0c0.8-0.9,1.7-1.8,2.5-2.8l0.1-0.2c1.2-1.4,2.4-2.8,3.6-4.1v-0.2h-0.1v-0.1h-0.1c1.1-1.1,2.1-2.3,3.2-3.4l0.1-0.2
		c0.8-0.8,1.5-1.6,2.3-2.3l0.1-0.1c0.6-0.6,1.2-1.1,1.7-1.7l0.2-0.1c1.2-1.1,2.3-2.1,3.5-3.2v0.1l0,0v0.1h0.2
		c0.5-0.5,1.1-0.9,1.6-1.4l0,0c0.4-0.3,0.9-0.7,1.3-1l0,0l0,0l0,0c0,0,0,0-0.1,0c0.9-0.3,1.8-0.5,2.6-0.8c0.1,0.3,0.2,0.5,0.2,0.7
		l0,0c-0.6,3.3-1.1,6.7-1.4,10c-0.7,6.6-0.7,13.1,0,19.7c0.2,2,0.5,3.9,0.9,5.9c0.9,4.6,2.7,9,4.1,13.6h-0.2v0.2l0,0l0,0l0,0l0,0
		c0.8,3.3,2.3,5.9,4.9,6.9c1.7-3.6,3.3-7,5-10.4v-0.2h-0.1v-0.1h-0.1c1-1,2-2,3-3.1c1.4-1.4,2.9-2.9,4.4-4.3l0,0v0.1l0,0
		c0.6-0.4,1.2-0.8,1.8-1.2l0,0l0,0l0,0l-0.1-0.1c0.2-0.2,0.4-0.5,0.7-0.7v0.1l0,0v0.1l0,0c2.1-1.3,4.1-2.5,6.1-3.8l0.1,0.1
		c5.5-2.3,11-4.6,16.4-7c1.8-0.8,3.4-1.9,5.1-2.9l0.1,0.1c0.6-0.4,1.2-0.8,1.8-1.1l0,0v-0.1l0,0c0.4-0.2,0.8-0.5,1.2-0.7l0,0
		c1.1-1,2.1-1.9,3.2-2.8l0.2-0.1c0.8-0.8,1.6-1.5,2.3-2.3l0.1-0.2c1-1.2,2-2.4,3-3.5v-0.2c1-1.6,2-3.3,3-4.9l0,0l0,0h-0.1l0,0h-0.1
		c0.4-0.8,0.9-1.6,1.4-2.4l0,0l0,0c0.4-0.8,0.9-1.6,1.3-2.4l0,0v-0.1l0,0v-0.1l0,0c0.6-1.1,1.4-2.1,1.7-3.3
		c3.2-12.7,6.3-25.3,9.4-38l0.1,0.1l0,0c1.2-0.8,2.4-1.6,3.5-2.4l0.2-0.1c0.1-0.9,0.3-1.9,0.4-2.8l0,0l0,0l0,0l0,0l0,0
		c0,0,0,0,0-0.1l0,0h-0.1c-0.3-0.1-0.6-0.2-0.8-0.3c-0.7-0.2-1.4-0.5-2-0.6c-0.4-0.1-0.8-0.1-1.2-0.1c-2.5,0.1-5.1,0.4-7.5,1.2
		c-5.1,1.7-10,3.9-15,5.8c-0.1,0-0.1,0-0.2,0l0,0l0,0c-1,0.6-2.1,1.2-3.1,1.8h-0.1c-0.8,0.6-1.6,1.1-2.5,1.7l0,0l0.1,0.1
		c-0.4,0.2-0.8,0.5-1.3,0.7l0,0c-0.1,0.2-0.3,0.4-0.4,0.6c-2.9,3.2-5.7,6.3-8.6,9.5l0,0l0,0c-0.1-0.1-0.3-0.2-0.5-0.1
		c-0.3-4,0-7.8,0.6-11.6c0.3-1.8,0.7-3.6,1.2-5.4c0.7-2.7,1.6-5.3,2.5-8l0,0l0,0l0,0c1.3-2.6,2.6-5.3,3.8-7.9l0.1-0.1l0,0
		c0.3-0.4,0.6-0.8,0.8-1.1c0.6-0.8,1.1-1.5,1.7-2.3c1.4-1.9,2.9-3.9,4.4-6l0,0c-2.6-0.1-5,0.3-7.2,1c-2.5,0.8-4.7,2-6.8,3.6
		c-0.1,0-0.1,0-0.2,0.1h-0.1c-0.6,0.4-1.2,0.8-1.8,1.1v0.1c-0.6,0.5-1.2,0.9-1.8,1.4l0,0l0,0l0,0v-0.1c-2,1.5-4.1,3-6.1,4.4l0,0
		c-1.1,0.9-2.1,1.9-3.2,2.8v0.2h0.1v0.1c-0.4,0.2-0.8,0.5-1.2,0.7c-0.2,0.2-0.4,0.4-0.6,0.5c-0.1,0.1-0.2,0.2-0.3,0.3
		c-1.6,1.3-3.1,2.6-4.7,4c-0.3-0.1-0.6-0.2-0.9-0.3c1.1-5.6,1.7-11.4,3.5-16.8c0.5-1.4,1-2.8,1.5-4.3c0-0.1,0.1-0.1,0.1-0.2
		c0.3-0.9,0.7-1.8,1-2.7c0.6-1.4,1.1-2.8,1.7-4.3c0.8-1.9,1.6-3.7,2.4-5.6c0.8-1.9,1.6-3.7,2.3-5.6h0.1l0,0c1.2-1.8,2.4-3.5,3.6-5.3
		l0,0l0,0l0.1-0.2l0,0l0,0c0.6-0.7,1.2-1.5,1.8-2.2l0,0l0,0v-0.1h-0.1V307h-0.1c0.8-0.8,1.6-1.7,2.4-2.5c0,0,0,0,0-0.1
		c0.5-0.5,0.9-1,1.4-1.5l0,0l0.1-0.1l0,0l0,0c0.9-1.5,1.7-3.1,2.6-4.6c-0.3-0.2-0.5-0.4-0.8-0.6c-2.3,1.2-4.6,2.3-6.9,3.5l0,0
		c-0.1,0-0.2,0-0.3,0.1l0,0c-1,0.6-2.1,1.2-3.1,1.9l0,0c-0.4,0.3-0.9,0.7-1.3,1v0.1c0,0.1-0.1,0.1-0.1,0.2c-1.9,1.4-3.8,2.8-6.1,4.5
		c0-0.2,0.1-0.4,0.1-0.5c0.1-0.3,0.1-0.5,0.1-0.8c0-0.2,0.1-0.4,0.1-0.6c0-0.3,0.1-0.5,0.1-0.8c0.1-0.6,0.2-1.1,0.3-1.7
		c0.1-0.3,0.1-0.7,0.2-1c0.1-0.5,0.3-0.9,0.4-1.4c2.1-5.7,4.4-11.3,6.7-17l0,0l0,0l0,0h-0.1l0,0l0,0c0.2-0.4,0.5-0.8,0.7-1.2h0.1
		c3.1-4.3,6.1-8.5,9.2-12.7l0,0v-0.1h-0.1V271h-0.1c0.9-0.9,1.7-1.9,2.6-2.8l0,0l0.1-0.1c0.8-1,1.8-1.9,2.5-3
		c0.2-0.4,0.4-0.7,0.6-1.1c0.6-1.5,1.1-3.6-1.4-4.5c-0.1-0.5-0.1-0.8,0-1v-0.1c0.3-0.5,1.3-0.3,2-0.5c4.6-1.4,9.3-2.8,13.9-4.2l0,0
		l0,0v0.1c1-0.6,2.1-1.2,3.1-1.8l0,0v-0.2h-0.1l0,0h-0.1c0.2-0.2,0.4-0.4,0.6-0.6c0,0,0,0,0.1-0.1c0.2-0.2,0.4-0.4,0.6-0.5v0.1h0.1
		l0,0h0.3c0.5-0.5,1.1-0.9,1.6-1.4l0,0c0.1-0.1,0.3-0.3,0.4-0.4c0.1-0.1,0.3-0.3,0.4-0.5c0.2-0.2,0.3-0.3,0.5-0.5s0.3-0.3,0.5-0.5
		s0.3-0.4,0.5-0.5c0.2-0.2,0.4-0.4,0.6-0.5c0.2-0.2,0.4-0.4,0.6-0.6c0.2-0.2,0.4-0.4,0.7-0.6l0,0c-2.8-0.2-5.5-0.4-8.2-0.7
		c-1.3-0.2-2.6-0.3-3.9-0.5c-1.6-0.3-3.2-0.6-4.8-0.9c-0.3-0.1-0.6-0.1-0.9-0.2c-1.2-0.3-2.5-0.7-3.7-1.1c-0.3-0.1-0.6-0.2-0.9-0.3
		c-1.5-0.6-2.9-1.2-4.4-1.9c-1.1-0.6-2.3-1.3-3.4-2c-1.6-2.1-3.2-4.2-4.8-6.3c-0.1-0.2-0.3-0.4-0.4-0.6l0,0l0,0h-0.1v-0.1h-0.1
		c-0.8-1.4-1.6-2.8-2.4-4.3l0,0l0,0c-0.3-0.4-0.5-0.8-0.8-1.2h0.1l0,0c-0.7-1.5-1.2-2.9-1.7-4.4c-0.2-0.6-0.3-1.1-0.5-1.7
		c-0.2-0.7-0.3-1.4-0.5-2c-0.1-0.7-0.3-1.4-0.4-2c-1.3-8.5,0.3-17,3.6-25.4c0.7-1.7,1.3-3.5,1.9-5.3c-0.2-0.3-0.4-0.6-0.7-0.9l0,0
		c-2.1,0.8-4.2,1.5-6.3,2.3h-0.1l-0.1-0.1l0,0l0,0l0,0c-0.6,0.4-1.2,0.8-1.8,1.1v0.1c-0.8,0.6-1.6,1.1-2.5,1.7l0.1,0.2
		c-0.4,0.3-0.8,0.5-1.2,0.8l0,0c0,0.1-0.1,0.1-0.1,0.2c-1.4,1.5-2.9,3-4.3,4.5h-0.1v0.2h0.1l0,0h0.1c-0.7,0.7-1.3,1.5-2,2.2v0.3
		c-0.6,1-1.2,2.1-1.8,3.1h0.1l0,0v0.1c-3.6,4.4-4.4,9.9-4.6,15.2c-0.1,4.3,0.6,8.3,1.8,12.2c0.6,1.8,1.3,3.5,2.1,5.2
		c0.2,0.5,0.5,0.9,0.7,1.4c0.1,0.3,0.3,0.5,0.4,0.7c0.3,0.5,0.5,0.9,0.8,1.4c0.1,0.2,0.3,0.5,0.4,0.7c0.4,0.7,0.8,1.4,1.3,2.1l0,0
		c0.3,0.5,0.6,0.9,0.9,1.4c0.7,1,1.4,2,2.2,3.1c0.1,0.2,0.3,0.3,0.4,0.5c0.8,1.1,1.6,2.2,2.6,3.5c-9.8-1.4-18.6-0.3-27.3,2
		c-4.6,1.2-9,3.5-13.5,5.3c-0.1,0-0.1,0-0.2,0v-0.1l0,0l0,0v-0.1c-0.4,0.3-0.8,0.5-1.2,0.8l0,0l0,0l0,0l0,0
		c-1.4,0.8-2.8,1.6-4.3,2.5h-0.1c-0.6,0.4-1.2,0.8-1.8,1.2l0,0c-0.4,0.2-0.8,0.5-1.3,0.7l0,0c-0.4,0.4-0.9,0.7-1.3,1.1v0.2h0.1v0.1
		h0.1c-0.2,0.2-0.4,0.4-0.6,0.6v-0.1h-0.1v-0.1h-0.3v0.1c-1.1,1-2.3,1.9-3.4,2.9h-0.1l-0.2,0.1v0.1c-4.6,4.2-8.4,8.9-10.7,14.7
		c-0.1,0-0.1,0.1-0.1,0.1h0.1l0,0c0,0,0,0,0,0.1s-0.1,0.2-0.1,0.3c-1.4,2.7-2.9,5.4-4.3,8l0,0l0,0c0.3,0.2,0.5,0.3,0.8,0.5
		c0.9-0.6,1.8-1.2,2.7-1.8l0.1,0.1c10.7-3.3,21.4-6.6,32.2-9.8c2.4-0.7,5-0.9,7.7-1.3c-0.1,1.3-0.1,2-0.2,2.6l0,0v-0.1h-0.1v-0.1
		h-0.3c-0.5,0.5-1.1,0.9-1.6,1.4h0.1l0,0c-0.2,0.2-0.4,0.4-0.6,0.6l0,0c0,0,0,0-0.1,0.1v-0.1v0.1c-0.6,0.6-1.2,1.2-1.8,1.8h-0.1h0.1
		l0,0h-0.1c-0.5,0.5-0.9,1.1-1.4,1.6v0.3h0.1l0,0h0.1c-0.2,0.2-0.4,0.4-0.6,0.6v-0.1h-0.1v-0.1H136v0.1c-1.3,1.4-2.6,2.9-3.9,4.3
		H132l0,0v0.1c-0.6,0.7-1.3,1.4-1.9,2.1l0,0l0,0H130l-0.1,0.2v0.1c-2.6,3.4-5.2,6.7-7.8,10.1H122l-0.1,0.2c0,0.1,0,0.1,0,0.1
		c-1.5,2.4-3.1,4.8-4.6,7.1l0,0c-0.1,0-0.1,0.1-0.2,0.1H117v0.1c-0.6,1-1.2,1.9-1.7,2.9l0,0h-0.1v0.1c0,0.1,0,0.2-0.1,0.3l0,0
		c-1.8,3.4-3.7,6.6-5.3,10.1c-0.3,0.5-0.5,1-0.7,1.6c-1.7,3.9-2.9,8.1-4.3,12.2c-2.9-12.9-3.4-25.6,1.9-38.5
		c-5.8,1.8-11.2,3.1-15.8,6.4c-0.1,0-0.1,0-0.2,0.1l-0.1-0.1l0,0c-1.4,0.8-2.9,1.6-4.3,2.4l0,0c-0.4,0.3-0.8,0.5-1.2,0.7L85,307
		v-0.1c-0.6,0.4-1.2,0.8-1.8,1.2v0.1l0,0l0,0c-1.3,0.8-2.5,1.6-3.8,2.3v0.1v0.1c-1,0.5-2,1-3.1,1.5c-0.3-0.1-0.6-0.2-0.9-0.4
		c1.1-5.2,1.8-10.6,3.5-15.6c1.2-3.4,2.6-6.8,4-10.2c0.4-0.9,0.7-1.7,1.1-2.5c1.1-2.5,2.2-5,3.3-7.6l0,0l0,0l0,0l0,0h-0.1l0,0
		c0.2-0.4,0.5-0.8,0.7-1.2H88l0,0c0.6-1,1.1-2.1,1.7-3.1l0.1,0.1l0,0c0.8-1.1,1.6-2.3,2.4-3.4l0,0l0,0v-0.2c1-1.4,2-2.8,3-4.1l0,0
		l0,0l0.1-0.2c0.6-0.8,1.2-1.5,1.8-2.3l0,0l0,0l0.1-0.2c0.8-1,1.6-1.9,2.4-2.9l0,0l0,0l0.1-0.2c2-2.3,4.1-4.5,6.1-6.8l0,0l0,0l0,0
		l0,0l0,0h-0.1l0,0c0.1-0.2,0.2-0.3,0.3-0.5c0.2-0.3,0.3-0.5,0.6-0.9c0.2-0.3,0.5-0.7,0.8-1.2l0,0c-5.6,0.7-10.2,1.9-14.3,4.9H93
		v-0.1l0,0c-0.8,0.5-1.6,0.9-2.4,1.4l-0.1-0.1l0,0l0,0l0,0c-0.6,0.1-1.3,0.2-2.2,0.3c0.1-0.2,0.2-0.4,0.3-0.6
		c0.7-1.5,1.2-2.8,1.8-4.1h0.1l0,0c0.8-1,1.5-2.1,2.3-3.1l0,0l0,0l0,0c0.2-0.4,0.5-0.8,0.7-1.2l0.1,0.1c2-2.4,4.1-4.8,6.1-7.2
		l0.1-0.1c0.4-0.4,0.8-0.7,1.1-1.1l0,0v-0.2l0,0l0,0h-0.1c0.4-0.2,0.8-0.5,1.3-0.7l0,0c0.2-0.2,0.3-0.3,0.5-0.5
		c1.2-1,2.5-2.1,3.7-3.1l0,0c0.4-0.3,0.9-0.7,1.3-1l0,0l0,0l0,0l-0.1-0.1c0.4-0.3,0.8-0.5,1.2-0.8l0,0c0.4-0.3,0.9-0.7,1.4-1l0,0
		l0,0l0,0v-0.1l0,0c2-1.2,4.1-2.4,6.1-3.7l0,0c0.4-0.3,0.8-0.5,1.2-0.8v0.1c8.4-3.4,17.1-5.9,26.2-6.3l0,0l0,0
		c0.2-0.4,0.4-0.7,0.6-1.1c-1.3-1-2.5-2-3.8-2.9l0,0l0,0c0,0,0,0,0-0.1l-0.1-0.2c-0.8-0.8-1.6-1.6-2.3-2.3l-0.2-0.1
		c-0.6-0.4-1.3-0.8-1.9-1.1c-0.6-0.4-1.3-0.8-1.9-1.1l0,0l0,0l0,0l0,0c-7.1-4.8-15.1-4.4-23.3-3.4c0-0.1,0.1-0.2,0.1-0.2
		c0.2-0.4,0.3-0.7,0.4-1c0,0,0-0.1,0.1-0.1c0-0.1,0-0.1,0.1-0.1l0,0l0,0l0,0l-0.1-0.1c0.8-0.5,1.5-1,2.3-1.5
		c0.3-0.3,0.6-0.5,0.9-0.8l0,0l0,0l0,0l0,0l0,0v-0.2h-0.2c0.2-0.2,0.4-0.4,0.6-0.6v0.2c1.5-1.1,2.9-2.1,4.4-3.2v0.1
		c0.6-0.4,1.2-0.7,1.8-1.1l0,0l0,0l0,0l0,0v-0.1c0.6-0.4,1.2-0.8,1.8-1.2l0,0l0,0l0,0c0.6-0.4,1.2-0.8,1.8-1.1l0,0l0,0l0,0
		c0,0,0-0.1-0.1-0.1c2-1.2,4.1-2.5,6.1-3.7l0.1,0.1c2.2-1.3,4.4-2.5,6.7-3.8l0.1,0.1c11.5-5.1,23.2-9.7,35.6-12.4
		c10.7-2.3,21.1-3,31.4,1.3c4.8,2.1,9.7,4.1,14.6,6.1h0.1c1.4,0.8,2.9,1.6,4.3,2.4l-0.1,0.1l0,0c0.6,0.4,1.2,0.7,1.8,1.1v0.1
		c0.6,0.4,1.2,0.8,1.8,1.1l0,0l0,0l0,0v-0.1c3.1,2.7,6.2,5.4,9.3,8c0.4,0.4,0.8,0.7,1.2,1.1c0.6,0.6,1.3,1.3,1.9,1.9l0,0
		c0.5,0.6,0.9,1.1,1.4,1.7c0.4,0.4,0.8,0.9,1.2,1.3c1.3,1.7,2.5,3.3,4.1,5.4l0,0l0,0c3.8-10,2.9-19.4-0.5-29.7l0,0
		c-0.3,0.6-0.6,1.1-0.9,1.6s-0.5,0.9-0.7,1.3c-0.1,0.2-0.3,0.5-0.4,0.7c-0.3,0.6-0.6,1.1-0.9,1.7c-1.4-1.6-2.7-3-4-4.5
		c-0.1-0.1-0.1-0.2-0.2-0.2l0,0c0,0,0,0-0.1,0c-1.5-1.8-2.9-3.5-4.4-5.3v0.1l0,0l0,0v-0.1c-0.4-0.4-0.8-0.9-1.2-1.3c0,0,0,0-0.1,0
		c-0.9-0.9-1.8-1.8-2.7-2.6c0,0,0,0,0,0.1l0,0v-0.1h-0.2v0.2c-0.3-0.4-0.5-0.9-0.7-1.3c-0.4-0.4-0.8-0.8-1.2-1.1c0,0,0,0-0.1,0
		c-0.7-0.6-1.4-1.3-2.2-2c0,0,0,0,0,0.1l0,0l0,0v-0.1l-0.2-0.1c-0.6-0.4-1.2-0.8-1.9-1.2l-0.1,0.1l0,0c-1.7-1.9-3.4-1.1-5,0.1
		c-0.1,0-0.1,0-0.2,0l0,0c-0.1,0.1-0.1,0.2-0.2,0.3c-1.1,1-2.2,1.2-3.4,0.2c-0.1-0.2-0.3-0.3-0.4-0.5l0,0c-0.5-0.5-1.1-0.9-1.6-1.3
		l-0.1-0.1c-0.6-0.6-1.3-1.1-1.9-1.7l0,0c-3.3-2.1-6.6-4.1-9.9-6.2v0.1c-0.4-0.3-0.8-0.5-1.2-0.8l-0.1,0.2h-0.1
		c-3.8-2.8-8.1-3.3-12.7-3.5l0,0c0,0,0,0-0.1,0c0.7,3.2,1.3,6.2,2,9.5c-3.8-0.3-7-0.9-10.2-0.8c-8.9,0.2-17.8,0.4-26.6,1.2
		c-13.2,1.2-26,4.6-38.2,9.7c-2.3,1-4.5,2.3-6.7,3.5c-0.2,0.1-0.4,0.1-0.6,0.2v-0.1v-0.1c-0.4,0.3-0.8,0.5-1.2,0.8l0,0V175
		c-0.8,0.5-1.6,0.9-2.4,1.4l0,0v-0.1c-1.5,0.8-2.9,1.6-4.4,2.4l0,0c-0.4,0.3-0.8,0.5-1.2,0.8l-0.1-0.1c-1.4,0.9-2.8,1.7-4.3,2.6l0,0
		c-2.5,1.9-4.9,3.7-7.4,5.6l0,0l0.1-0.1c-0.4,0.2-0.8,0.5-1.2,0.7l0,0v0.1l0,0c-1.2,1-2.4,2-3.6,2.9h-0.1l0,0c0,0.1,0,0.1-0.1,0.2
		c-1.6,1.5-3.2,3-4.8,4.5h-0.1l-0.2,0.1v0.1l0,0c-1.9,1.9-3.9,3.9-5.8,5.8c-3.2,4.3-6.4,8.5-9.6,12.8c-0.2,0.2-0.3,0.3-0.5,0.5h-0.1
		v0.1l0,0c-0.8,1.1-1.6,2.3-2.3,3.4l0,0l-0.1,0.1l0,0l-0.1,0.1l0.1,0.1c-0.6,1-1.2,1.9-1.7,2.9l0,0l0,0v0.1c-3,5.4-6,10.8-9,16.3
		c0.2-0.1,0.4-0.2,0.6-0.3c2.8-1.2,5.5-2.7,8.3-3.9c0.6-0.3,1.2-0.5,1.8-0.7l0,0c3.5-1.3,7.1-2.2,11.4-1.7c-1.5,1.6-2.6,2.7-3.6,3.9
		l0,0h-0.1c0,0,0,0,0,0.1l0,0l0,0c-0.6,0.7-1.3,1.4-1.9,2.1c0,0,0,0-0.1,0l-0.1,0.1v0.1l0,0c-3.8,5.1-7.6,10.2-11.4,15.3l0,0
		l-0.1,0.1h-0.1c-0.6,1.1-1.2,2.1-1.7,3.2l-0.1-0.1c-1,1.8-2,3.7-3,5.5l0,0v0.1l0.1,0.1c0,0,0,0.1-0.1,0.1l0,0
		c-0.3,0.4-0.7,0.8-1,1.2c-0.1,0.1-0.2,0.3-0.3,0.5c-9.6,19.7-13.8,40.8-14.6,62.6c0,0.3,0.2,0.7,0.5,2l0,0c2-2.3,3.6-4.2,5.2-6
		c0,0,0,0,0-0.1c0,0,0,0-0.1,0l-0.1-0.1h0.1c0,0,0,0-0.1-0.1c1.2-0.8,2.4-1.7,3.7-2.5l0,0c0.4-0.3,0.9-0.7,1.3-1l0,0l-0.1-0.1h0.1
		l0,0c0.4-0.2,0.8-0.5,1.1-0.7l0,0l0,0C43.1,315,43.6,314.7,44,314.4L44,314.4z M468.1,251.8c0.3,0.2,0.7,0.4,1,0.6
		c0.1,0.1,0.2,0.1,0.2,0.1l0,0l0,0l0,0l0,0c1,1,2,2,3.1,3h-0.2v0.2c1.1,1.2,2.1,2.3,3.2,3.5h-0.2v0.2l0,0c0.6,0.7,1.2,1.5,1.8,2.2
		l0.1,0.2l0,0c1.4,2,2.8,4,4.2,5.9l0,0l0,0h0.1c0.4,0.6,0.8,1.2,1.1,1.8l0.1,0.1l0,0c1.6,2.9,3.3,5.7,4.9,8.5l0,0l0,0l0,0l0,0l0,0
		c0.3,0.6,0.5,1.2,0.8,1.8l0,0l0,0v0.1c0,0.2,0,0.3,0.1,0.5c4.4,8.9,7.3,18.3,8.5,28.1c0.1,0.5,0.1,1,0,1.4
		c-0.1,0.5-0.5,0.8-1.6,0.4l0,0l0,0l0,0c-0.4-0.3-0.8-0.5-1.2-0.7l0.1-0.1l0,0l0,0c-0.6-0.4-1.2-0.8-1.9-1.1l0,0l-0.1,0.1
		c-0.3-0.2-0.5-0.4-0.8-0.6c-0.3-0.3-0.7-0.5-1-0.8l0,0l0,0v0.1c-1.2-0.8-2.5-1.7-3.7-2.6l0,0l-0.1,0.1c-0.4-0.3-0.8-0.5-1.2-0.8
		l0,0l0,0l0,0l0,0c-0.7-0.5-1.4-1-2.2-1.4c-5.2-3.2-11-5-17.1-6.8l0,0c1.4,3.2,2.4,6.5,3,9.8c2.3,11.2,1.1,22.4-1.1,29.3
		c-0.2-0.6-0.4-1.2-0.5-1.7c-0.1-0.4-0.2-0.7-0.3-1c0-0.2-0.1-0.3-0.1-0.5c-0.1-0.3-0.2-0.5-0.3-0.8c0,0,0,0,0-0.1
		c-1.1-2.6-2.2-5.2-3.3-7.8c-0.9-2-1.7-4.1-2.6-6.1c-0.1-0.2-0.1-0.4-0.2-0.5l0,0l0,0l0.1-0.1c-1.2-2.2-2.4-4.5-3.7-6.7l0,0l0,0
		v-0.1l0,0c-0.6-1-1.2-2-1.8-3l0,0l0.1-0.1l0,0l-0.1-0.1l0,0l0,0c-0.4-0.5-0.8-1.1-1.2-1.6l0,0H454l0,0c-0.4-0.6-0.8-1.2-1.2-1.8
		h-0.1c-0.4-0.6-0.7-1.3-1.1-1.9l-0.1-0.2c-4.6-5.8-9.3-11.6-13.9-17.4c-2.5-2.4-5-4.8-7.4-7.2c-0.4-0.4-0.3-1.2-0.5-1.8
		c0.2-0.1,0.4-0.1,0.6-0.1c1.5-0.3,3-0.2,4.4,0.1c2.5,0.5,4.9,1.5,7.4,2.3c1.9,0.6,3.8,1.2,5.7,1.8c0.9,0.3,1.8,0.6,2.7,0.8
		c6.6,2,13.1,4.1,19.7,6.1c0.5,0.1,1,0.4,1.5,0.6l0,0c0.3,0.1,0.6,0.3,0.9,0.4l0,0c0.3,0.2,0.7,0.3,1.1,0.5l0,0l0,0
		c-1.2-2.1-2-3.4-2.8-4.8V282l0,0l0,0l0,0h0.1c-0.1-0.1-0.1-0.2-0.2-0.3c-3-8.2-8.1-14.9-14.6-20.4c0-0.1,0-0.1-0.1-0.2
		c-1-0.8-2-1.7-3.1-2.5l0,0c-0.4-0.3-0.8-0.5-1.2-0.7l0.1-0.1c-0.6-0.4-1.3-0.7-1.9-1.1v-0.1c-0.6-0.4-1.2-0.8-1.8-1.2l-0.2,0.1l0,0
		h-0.1c-0.2-0.2-0.3-0.4-0.5-0.6c-0.1,0-0.3-0.1-0.4-0.1l0,0c-1.1-0.6-2.2-1.4-3.3-2c-0.4-0.2-0.8-0.4-1.3-0.6
		c-11.9-5.4-24.5-7.3-37.5-6.9c-0.4,0-0.8-0.2-1.1-0.5c-0.1-0.1-0.3-0.2-0.4-0.3c-0.1-0.1-0.1-0.1-0.2-0.1c0,0,0,0,0.1-0.1l0.1-0.2
		c0,0,0,0,0-0.1c1.6-2.2,3.2-4.4,4.8-6.6l0,0h0.1l0,0l0,0l0,0c0.4-0.6,0.7-1.3,1.1-1.9v-0.1v-0.1c9.5-13.5,9-32.1-2.8-44.5
		c-0.6-0.6-1.3-1.3-2-1.9v-0.1l-0.2-0.2c-0.1,0-0.2-0.1-0.2-0.1c-2-2.1-4.1-4-6.7-5.1l0,0c-0.5-0.2-1-0.4-1.6-0.6
		c-0.1,0-0.2,0-0.3-0.1c-0.2-0.1-0.4-0.1-0.7-0.2c-0.3-0.1-0.6-0.1-0.9-0.1c-1-0.1-2.2-0.2-3.4-0.1c1.1,3.5,2.2,6.8,3.3,10.1
		c0.2,0.5,0.3,0.9,0.5,1.4c3.4,10.1,3.4,20.1-1.8,29.6c-2.6,4.7-6,9-9.1,13.5l0,0c-2.2,1.1-4.5,2-6.8,2.8c-5.7,2-11.6,3.1-17.7,3.6
		c-1.2,0.1-2.4,0.1-3.7,0.2c-0.2,0.3-0.4,0.7-0.6,1l0,0c2.5,2.2,5.1,4.4,7.6,6.5h0.1l0,0c0.5,0.4,1,0.7,1.5,1.1
		c0.3,0.2,0.7,0.4,1,0.6c0.7,0.4,1.5,0.8,2.3,1.1c0.3,0.1,0.6,0.2,0.8,0.3c1.7,0.6,3.5,1.1,5.4,1.4c2.4,0.5,4.8,0.8,7.2,1.3
		c-1.3,1.8-2.4,3.5-1.8,5.3c0.2,0.6,0.6,1.2,1.4,1.8h-0.1c0.5,0.8,1,1.5,1.5,2.3c0.4,0.4,0.8,0.8,1.2,1.3c0.6,0.7,1.2,1.5,1.8,2.2
		c0.3,0.4,0.6,0.7,0.9,1.1c1.2,1.5,2.3,3,3.4,4.5l0,0c6.9,9.5,12,19.9,13.9,32.3c-2-1.5-3.7-2.7-5.3-3.9c0-0.1-0.1-0.1-0.1-0.1v0.1
		l0,0l0,0l0,0c0,0-0.1,0-0.1-0.1c-0.2-0.2-0.4-0.4-0.6-0.6c-0.4-0.5-0.9-0.9-1.4-1.2c-0.7-0.6-1.5-1.1-2.3-1.5l0,0
		c-2.6-1.5-5.6-2.5-8.4-3.8l0,0l0,0c-0.2,0.2-0.5,0.5-0.7,0.7c1.1,1.8,2.3,3.6,3.4,5.5c0.4,0.5,0.8,0.9,1.2,1.3
		c1.9,2.5,3.9,5,5.8,7.6l0.1,0.2c1.7,2.8,3.4,5.6,5.1,8.3h-0.1l0,0c0.4,1.1,0.7,2.3,1.2,3.4c4.1,9.7,6.9,19.7,7.5,30.3
		c-0.3,0-0.6,0-0.9,0l0,0c-0.4-0.3-0.8-0.5-1.2-0.8v0.1l0,0l0,0h-0.1c-0.2-0.2-0.4-0.4-0.5-0.5h0.2l0,0h0.1v-0.3
		c-0.4-0.4-0.8-0.7-1.1-1.1l-0.1-0.1h-0.1c-1.6-1.5-3.2-3-4.8-4.5c0,0,0-0.1-0.1-0.2l0,0c-0.4-0.2-0.9-0.5-1.3-0.7l0.1-0.2
		c-0.1,0-0.1,0-0.2,0c-1.8-1.4-3.5-2.7-5.3-4v-0.1v0.1l0,0l0,0l0,0l0,0l0,0c-0.8-0.6-1.6-1.3-2.4-1.9h-0.1c-1.4-0.8-2.8-1.6-4.2-2.5
		v0.1l0,0l0,0l0,0c-0.1,0-0.1,0-0.2,0c-2.7-2.1-5.6-3.1-9-3.4c-0.9-0.1-1.8-0.1-2.8,0l0,0c2.3,3.1,4.4,6,6.5,8.8l0,0l0,0h0.1
		c0.1,0.5,0.1,1,0.4,1.4c3.7,6.5,6.4,13.4,7.5,20.8c0.6,3.8,0.7,7.7,1.1,11.5c-0.2,0-0.5,0.1-0.7,0.1c-1.3-1.4-2.6-2.8-3.9-4.3
		c-0.1-0.1-0.1-0.2-0.2-0.3h0.1l0,0h0.1v-0.2c-0.5-0.5-0.9-1-1.4-1.5h-0.1c-0.7-0.7-1.4-1.3-2.1-2c0,0,0,0,0-0.1h-0.3v0.1h-0.1v0.1
		c-0.2-0.2-0.4-0.4-0.6-0.6c-0.2-0.2-0.4-0.4-0.6-0.6h0.2l0,0l0,0v-0.3H380c-1-0.8-1.9-1.5-2.8-2.3c0,0,0,0,0-0.1l-0.2-0.1
		c-0.6-0.4-1.2-0.8-1.8-1.1h-0.1c-1.4-0.8-2.9-1.6-4.3-2.4l0,0l0,0l0,0l0,0h-0.1l0,0c-0.9-0.6-1.7-1.3-2.6-1.6
		c-0.2-0.1-0.4-0.1-0.6-0.1c-1.1-0.3-2.3-0.6-3.4-0.9c-0.4-0.1-0.8-0.2-1.1-0.3c-2.7-0.7-5.4-1.3-8.1-1.9c-1.7-0.4-3.4-0.7-5.1-1
		c-0.4-0.1-0.8,0-1.2,0.2c-0.1,0-0.2,0.1-0.3,0.1c-0.2,0.1-0.3,0.2-0.5,0.3l0,0c-0.2,0.1-0.3,0.2-0.5,0.3c-0.2,0.1-0.4,0.3-0.6,0.4
		c-0.1,0-0.1,0.1-0.1,0.1l0,0l0,0c-0.3,0.2-0.7,0.4-1,0.6c0.5,0.5,1,1,1.6,1.5c0.5,0.5,1,1,1.6,1.4c0.2,0.2,0.6,0.1,0.9,0.2l0,0v0.1
		l0,0l0,0c0.7,1.5,1.7,3,2.1,4.7c0.8,3.2,1.5,6.5,2.2,9.8c0.4,1.6,0.7,3.1,1.1,4.7c0.7,3.3,1.5,6.5,2.4,9.7
		c1.4,5.2,3.5,10.1,5.4,15.2l0,0l-0.1,0.1l0,0c1,1.8,2,3.6,3.1,5.5v0.1l0,0l0,0c2.7,3.2,5.4,6.5,8,9.7l0,0l0,0
		c0.1,0.1,0.1,0.1,0.2,0.2c0.4,0.4,0.9,0.8,1.4,1.2l0.2,0.1l0,0c0.6,0.4,1.2,0.8,1.8,1.2l0.2-0.1l0,0l0,0v-0.1
		c0.2,0.2,0.4,0.4,0.6,0.6h-0.1l0,0l0,0l0,0c0.2,0.2,0.4,0.3,0.6,0.5c0.3,0.3,0.6,0.5,0.9,0.8c0.2,0.2,0.4,0.3,0.7,0.4
		c0.1,0.1,0.2,0.1,0.4,0.2c5,2.1,10.1,4.1,15.2,6.2l0,0l0,0l0,0l0.1-0.1l0,0l0,0c0.2,0.1,0.4,0.2,0.6,0.4l0,0
		c0.2,0.1,0.4,0.2,0.6,0.3l0,0l0,0v-0.1l0,0l0,0c0.2,0.1,0.4,0.2,0.6,0.4l0,0c0.2,0.1,0.3,0.2,0.5,0.3l0,0l0,0l0,0v-0.1l0,0
		c0.1,0.1,0.3,0.2,0.4,0.3l0,0c0.2,0.2,0.5,0.3,0.7,0.5l0,0l0,0l0,0c1.4,0.8,2.9,1.6,4.3,2.4l0,0l-0.1,0.1c0.5,0.3,1,0.6,1.5,0.9
		c0.1,0.1,0.2,0.1,0.3,0.2v0.1l0,0c0.6,0.4,1.2,0.7,1.8,1.1l0,0l0,0l0,0v-0.1c0.8,0.7,1.6,1.3,2.4,2v0.2l0,0c0.7,0.7,1.4,1.3,2.1,2
		c0.4,0.4,0.8,0.8,1.3,1.3c1.3,1.5,2.7,3,4,4.5l0,0l0,0h0.1c1.3,3.2,2.6,6.4,4,9.7l0,0l0,0c0.4-0.4,0.9-0.8,1.4-1.3l0,0h0.2l0,0l0,0
		v-0.2l0,0c0.5-0.6,1.1-1.1,1.6-1.7c0.1-0.1,0.1-0.1,0.2-0.2c0.2-0.3,0.4-0.5,0.6-0.8l0,0c0.1-0.2,0.1-0.3,0.2-0.4l0,0
		c0.4-1.3,0.9-2.6,1.4-4c0.8-2.3,1.6-4.6,2.2-7c0.2-0.6,0.3-1.2,0.4-1.7c0-0.1,0-0.2,0.1-0.3c0.2-0.7,0.3-1.3,0.4-2
		c0.1-0.3,0.1-0.7,0.2-1c1-6.8,1.3-13.8,1.3-20.7c0-4.6-0.9-9.3-1.6-13.9c-0.1-0.8,0-1.2,0.3-1.5c0.3-0.2,0.7-0.3,1.3-0.2l0,0l0,0
		v0.2c0.4,0.3,0.8,0.6,1.2,0.9l0,0l0,0c0,0,0,0,0.1,0l0,0l0,0c0.9,0.7,1.8,1.4,2.8,2l0,0l0.2,0.1l0,0c0.8,0.8,1.5,1.6,2.3,2.4
		c0.8,0.8,1.5,1.6,2.3,2.4c1.5,1.6,3.1,3.2,4.6,4.8c1.2,1.2,2.3,2.5,3.5,3.8l0,0c1.1,1.2,2.3,2.5,3.4,3.7l0,0l0,0
		c0.3,0.4,0.5,0.8,0.7,1.2l0,0l0,0l0,0l0,0c2.6,3.5,5.3,7.1,8.2,11.1l0,0c0.6-1.6,1-2.6,1.4-3.6l0,0h0.1l0,0c0.6-1,1.2-2,1.8-3l0,0
		l0,0l0,0l0,0l-0.1-0.1l0,0c0.2-0.4,0.5-0.8,0.7-1.2l0,0l0,0l0,0c0.6-0.9,1.3-1.8,1.8-2.7c10.9-21.2,17.6-43.6,17.7-67.6
		c0.5,0.1,1,0.1,1.5,0.1v0.1l0,0c1.9,1.8,3.8,3.5,5.6,5.3c0.6,0.6,1.2,1.2,1.8,1.9l0,0l0,0c1.2,1.4,2.5,2.8,3.7,4.2l0,0
		c0.6,0.6,1.2,1.3,1.8,1.9l0,0h-0.1l0,0l0,0v0.2l0,0l0,0c3.3,4.6,6.6,9.3,9.9,13.9l-0.1,0.1l0.1,0.1l0,0c1.3,2,2.5,3.9,3.8,5.9
		l-0.1,0.1l0,0c2.7,5.3,5.3,10.6,8.2,16.2l0,0l0,0c0.9-1,1.5-1.7,2.2-2.5l0,0l0,0l0,0l0,0l0,0l0.1-0.2l0,0c0,0,0,0,0,0.1
		c0.4-0.6,1-1.2,1.2-1.9c1-4.5,2.2-8.9,2.7-13.4c1.3-10.4,2.7-20.9,1.3-31.4c-1.3-10.3-2.5-20.6-4.1-30.8c-0.7-4.5-2.2-9-3.4-14
		c2.2,1,4.2,1.8,6,2.6c0.6,0.3,1.3,0.5,1.9,0.8v0.1l0,0c0.6,0.4,1.2,0.8,1.8,1.2v0.1l0,0c0.4,0.3,0.9,0.6,1.3,1l0,0l0,0l0,0
		c2,1.6,4.1,3.3,6.1,4.9l0,0l0,0l0,0c0.4,0.2,0.8,0.5,1.2,0.7h-0.1l0,0l0,0v0.2c1.1,1.2,2.3,2.3,4.1,4.1l0,0l0,0
		c-0.5-5.4-0.9-9.8-1.3-14.1c-0.8-11.6-3.3-22.9-7-33.9c-1.8-5.2-4.3-10.1-6.5-15.2l0,0h0.1l0,0l0,0l0,0c-0.6-1.2-1.2-2.5-1.8-3.7
		l0,0l0,0l0,0l0,0c-0.3-0.4-0.5-0.8-0.8-1.2l0.1-0.1l0,0c-1.8-3.1-3.6-6.2-5.5-9.3h-0.1c-0.5-0.8-0.9-1.5-1.4-2.3l0,0l0,0
		c-0.3-0.4-0.7-0.9-1-1.3l-0.1-0.2l0,0c-3.4-4.1-6.9-8.1-10.3-12.2l0,0l0,0h-0.2l0,0l-0.1,0.1l0,0l0,0c-0.1-0.1-0.2-0.2-0.2-0.4
		c-0.2-0.3-0.3-0.5-0.5-0.8l0,0c-0.2-0.3-0.4-0.5-0.6-0.8c-0.2-0.3-0.4-0.6-0.6-0.9c-0.1-0.1-0.2-0.3-0.3-0.5c0.5,0,1-0.1,1.5-0.1
		c1.9,0,3.6,0.2,5.3,0.6c0.3,0.1,0.6,0.1,0.9,0.2c0.1,0,0.2,0.1,0.4,0.1c0.3,0.1,0.6,0.2,0.8,0.3c0.5,0.2,0.9,0.3,1.4,0.5
		c0.3,0.1,0.7,0.3,1,0.4c0.1,0,0.2,0.1,0.3,0.1c0.2,0.1,0.4,0.2,0.6,0.3c0.1,0.1,0.3,0.1,0.4,0.2c3,1.3,5.8,2.9,8.9,4.1l0,0l0,0
		c-2.6-4.6-5.1-9.2-7.7-13.8l0.1-0.1l0,0l0,0l0,0l0,0c-0.6-1-1.2-2-1.8-3l0,0l0,0l0,0c-0.6-1-1.2-2-1.8-3l0,0l0,0l0,0
		c-0.4-0.6-0.8-1.2-1.1-1.8l0,0v-0.1v-0.1l0,0l0,0l0,0c-0.4-0.5-0.8-1.1-1.2-1.6l0,0l0,0v-0.2l0,0l0,0l0,0c-0.4-0.5-0.8-1.1-1.2-1.6
		l0,0v-0.2l0,0l0,0c-0.6-0.8-1.2-1.5-1.8-2.3l0,0l-0.1-0.2l0,0c-1.7-2-3.4-4-5.1-5.9l0,0h0.2l0,0V202l0,0l0,0
		c-0.4-0.4-0.8-0.7-1.1-1.1l-0.1-0.2c-1.5-1.7-3.1-3.4-4.6-5.1c-0.4-0.4-0.8-0.8-1.2-1.2c-1.5-1.3-3.1-2.6-4.6-3.9h-0.2l0,0v0.2
		c-0.2-0.2-0.5-0.4-0.7-0.7h0.2l0,0v-0.2l0,0l0,0c-1.9-1.6-3.8-3.1-5.7-4.7l0,0l0,0c-0.8-0.6-1.6-1.2-2.5-1.9l0,0
		c-1-0.6-2-1.3-3-1.9v-0.1l0,0l0,0c-1.2-0.8-2.5-1.6-3.7-2.4l0,0l0,0v0.1c-1.4-0.8-2.9-1.7-4.3-2.5l0,0l0,0l0,0l0,0
		c-2.7-1.6-5.3-3.3-8.1-4.6c-1.3-0.6-2.6-1.2-3.9-1.7c-0.7-0.3-1.3-0.6-2-0.8c-1.3-0.5-2.6-1.1-3.9-1.5c-2-0.7-4-1.4-6-2.1
		c-1.2-0.4-2.4-0.8-3.5-1.1c-0.5-0.1-0.9-0.3-1.4-0.4c-1.7-0.5-3.4-0.9-5.1-1.4c-3.3-0.8-6.5-1.5-9.8-2.1c-0.2-0.1-0.5-0.1-0.7-0.1
		c-11.9-2.1-24-2.7-36.3-2.3c-1.7,0.1-3.4,0.3-5.1,0.6c-0.7,0.1-1.4,0.2-2,0.3c-0.3,0-0.7,0.1-1,0.1c0-0.1-0.1-0.3-0.1-0.5
		c0-0.1-0.1-0.3-0.1-0.4c-0.1-0.2-0.1-0.5-0.1-0.7s0-0.4,0-0.6c0.5-2.4,1.1-4.9,1.8-7.7l0,0l0,0c-6.2,0.3-11.7,1.7-16.4,5.4v-0.1
		l0,0l0,0c-0.6,0.4-1.2,0.9-1.8,1.3v-0.1l0,0l0,0c-3.4,2.4-6.7,4.8-10.1,7.1c-0.7,0.5-1.7,0.7-2.5,1l0,0c-0.5-0.8-1.1-1.3-1.7-1.7
		c-1.9-1.2-3.9-0.7-6,1.6l-0.1-0.1l0,0l0,0l-0.1,0.1c-2.9,3-5.9,5.9-8.9,8.9c-0.4,0.4-0.8,0.9-1.2,1.3c-2.1,2.6-4.2,5.2-6.3,7.9l0,0
		c-0.4-0.4-0.9-0.8-1.3-1.2c-0.1-0.1-0.3-0.3-0.4-0.4c-0.7-0.9-1.2-1.8-2.1-3.1l0,0c-2.8,9.3-4.2,18-1.3,26.7
		c0.3,0.8,0.6,1.5,0.9,2.3l0,0c3.9-4.3,7.6-8.4,11.3-12.6l0,0l0,0l-0.1-0.1c0.4-0.2,0.8-0.5,1.1-0.7c0,0,0.1,0,0.1-0.1
		c0,0,0,0-0.1,0l0,0c0.2-0.2,0.4-0.4,0.7-0.6v0.1l0,0l0,0l0,0c1-0.8,2-1.6,3-2.5l0,0l0,0l0,0c0.4-0.3,0.9-0.7,1.3-1l0,0l-0.1-0.1
		c0.4-0.2,0.8-0.5,1.2-0.7l0,0l0,0l0,0c0.4-0.3,0.9-0.7,1.3-1l0,0l-0.1-0.1c1-0.6,2-1.3,3-2l0.1,0.1l0,0l0,0c1-0.6,2-1.3,3-1.9
		l0.1,0.1l0,0l0,0l0,0c0,0,0,0,0.1,0l-0.1,0.1c1.7-0.8,3.5-1.7,5.2-2.4c9.4-4.2,18.9-8.6,29.5-7.5c10.8,1.1,21.4,3.6,31.6,7.6
		c7.1,2.8,13.9,6.1,20.9,9.2l0,0l0,0l0,0l0.1-0.1c0.4,0.3,0.8,0.5,1.2,0.8l0,0l0,0c1,0.6,2,1.2,3.1,1.8l0,0l0.1-0.1
		c0.2,0.1,0.4,0.3,0.6,0.4c0.8,0.5,1.6,1,2.3,1.5h0.1l0,0c0.6,0.4,1.2,0.8,1.8,1.2l0,0l0,0c1.2,0.8,2.5,1.6,3.7,2.4v0.1l0,0
		c0.6,0.4,1.2,0.8,1.8,1.2l0,0l0,0v-0.1c0.7,0.7,1.5,1.3,2.2,2l0,0l0.2,0.1l0,0c1.7,1.6,3.4,3.2,5.8,5.4c-9.6-1.6-18-1.2-25.5,3.9
		l0,0l0,0l0,0l0,0c-0.5,0.3-0.9,0.7-1.4,1l0,0l0,0l0.1,0.1c-0.4,0.2-0.8,0.5-1.2,0.7l0,0l0,0l0,0c-1.2,1.2-2.4,2.5-3.7,3.7l0,0l0,0
		l0,0l0,0c-0.5,0.6-0.9,1.1-1.3,1.7c-0.1,0.2-0.3,0.4-0.4,0.5l0,0c5.9,1.2,11.6,2,17.1,3.6c4.7,1.4,9.1,3.7,13.7,5.6l-0.1,0.1l0,0
		c0.6,0.4,1.2,0.7,1.8,1.1l0,0v0.1c0.6,0.4,1.2,0.8,1.8,1.2l0,0v0.1l0,0c0.6,0.4,1.2,0.8,1.8,1.1l0,0v-0.1c0.1,0.1,0.1,0.1,0.2,0.2
		c4.8,5.1,9.7,10.1,14.5,15.2v0.3l0,0c0.6,0.8,1.2,1.5,1.8,2.3l0,0l0,0l0,0l0,0l0.1-0.1c0.7,1.8,1.5,3.5,2.4,5.6
		c-6.2-2.6-11.6-6.1-19-6.4l0,0c0.3,0.5,0.5,0.9,0.8,1.3c0.2,0.4,0.4,0.8,0.6,1.1c0.1,0.2,0.2,0.4,0.3,0.5c0.2,0.3,0.4,0.6,0.5,1
		C467.9,251.5,468,251.6,468.1,251.8L468.1,251.8L468.1,251.8z M566.9,321.2c0.8,17.1-1,33.9-7.4,50.7c-3.7-6.8-6.5-13.5-12.3-18.9
		c5,36.7-2.9,70-21.5,101.7c-1.2-3.5-2.1-6-3.1-8.6c-5.4-14-10.8-28.1-19.5-40.5c-1.7-2.4-3.9-4.5-6-7
		c-7.7,30.4-19.6,57.7-39.4,81.9c-3.8-9.2-7.9-17.3-13.6-25c-10.3,10.2-14.3,23.3-19,36.6c-0.7-1.2-1.1-2-1.5-2.7
		c-2.6-4.6-4.8-9.5-7.8-13.8c-6.6-9.9-14.9-18-26.4-21.8c-4.4-1.5-8.9-2.7-13.4-1.5c-0.5,4.3-0.9,8.3-1.6,12.2
		c-1.5,9.2-3.9,18-9.2,25.9c-2.6,3.8-5.6,7.1-10.1,8.7c-1.1-7.3-5-12.8-8.8-18.6c-2.4,2-4.5,3.9-6.8,5.7
		c-11.2,8.9-23.7,15.4-37.8,18.5c-3.3,0.7-6.7,1.3-10,1.9c-1,0-2.1,0-3.1,0c-0.1-0.2-0.1-0.5-0.2-0.5c-9.3-3.1-18.7-6.1-27.9-9.4
		c-6.2-2.1-12.3-4.6-18.5-6.9c-2,4.3-3.9,8.4-5.6,12.5c-0.8,1.9-1.8,2.4-3.5,1.2c-3.6-2.3-7.5-4.3-10.6-7.1
		C209.6,485,203.7,470,200,453.9c-0.5-2.3-1.6-3.2-3.5-3.4c-1.7-0.2-3.5-0.1-5.2,0.2c-7,1.3-12.9,4.8-18.4,9.1
		c-6.2,4.8-12.2,10-18.4,15.1c-10.5-6.6-16.2-17.6-23.6-28.7c-5.9,10.9-11.4,21.1-17.3,32c-19-23.5-27.4-51.7-37.7-79.4
		c-7,7.6-11.5,16.5-15.4,25.7c-3.8,9.1-7,18.5-10.6,28.1c-2-2.6-3.8-4.9-5.5-7.3c-13.3-19.3-17.9-41.2-19-64
		c-0.4-9.3,0.3-18.7,0.5-29.2c-4.2,7.1-8,13.5-11.9,20.1c-3.4-6.3-6.8-19.5-7.2-28.2c-0.9-18.8,1.1-37.3,5.9-55.5
		c1.3-4.8,2.6-9.5,4-14.7c-2.6,1.8-4.8,3.3-7,4.8c-0.2-0.2-0.5-0.5-0.7-0.7c9.7-49.8,34-89.8,77.1-116.6c-1.8-2.1-3.6-4.4-5.6-6.6
		c-7.2-7.8-10.9-17.4-14.3-27.1c-2.4-6.6-4-13.6-6.3-20.3c-1.1-3.1-3.1-5.9-5.1-9.5c4-0.8,7.5-1.6,11.5-2.5
		c-0.5-6.9-0.9-14.1-1.5-21.2c-0.9-9.6-2-19.3-2.9-28.9c-0.5-5.3-1.1-10.6-3.9-15.3c-4.3-7.2-9-14.2-13.5-21.3
		c6,0.7,12.4,1.6,18.7,2.1c6.3,0.5,12.2,1.8,17.8,4.9c3.4,1.9,6.9,3.6,10.2,5.6c6.3,3.8,12.2,8.6,19,11.4c12.2,5,24.7,9.3,37.4,13
		c12.4,3.7,24.1,8.6,33.5,17.5c5.7,5.4,11.3,6.3,17.9,2.3c0.6-0.3,1.3-0.6,2-0.5c2.9,0.4,5.8,0.8,8.7,1.4c9.7,1.8,19.4,2.1,29.1,0.1
		c4.3-0.9,9-1.5,13.1-0.5c9.4,2.3,18.5,5.5,26.4,11.4c1,0.8,2.3,1.3,3.6,1.7c5.9,1.9,11-0.2,16-3c6.5-3.8,13-7.6,20.6-9
		c7.7-1.3,15.4-2.7,23.3,0c3.1,1.1,6.9,0.9,10.2,0.3c9.1-1.8,18.1-2.7,27.2-0.1c5,1.4,9.9,1.2,14.1-2.6c1.9-1.7,4-3.2,6-4.8
		c9.7-7.6,20-14.3,32.1-17.1c13.1-2.9,25.5-7.6,37.2-14c9.5-5.2,18.8-10.9,29.5-13.6c10.3-2.5,20.7-4.8,31.1-7.3
		c0.1,0.3,0.3,0.6,0.4,0.9c-1.2,1.6-2.6,3.1-3.7,4.7c-10.2,14.2-13.7,30.6-16.1,47.4c-0.8,5.6-1.4,11.4-1.7,17.1
		c-0.3,5.9-0.1,11.8-0.1,17.1c3.7,1.1,7,2.1,10.6,3.2c-1.2,2.6-2.2,4.3-2.9,6.2c-3.2,8.2-7.1,16.3-9.4,24.7
		c-3.4,12.6-9.5,23.3-19,32.2c0.8,0.6,1.5,1.3,2.4,1.9c14.3,10.1,27.3,21.6,38.6,35c17,20,29.1,42.4,34.3,68.3c0.8,4,1.1,8,1.6,12
		c-2.6-2.7-4.9-5.1-7.3-7.5c-0.2,0.2-0.5,0.4-0.7,0.7C560.4,288,566.1,304.1,566.9,321.2z M478.4,108c3.6-4.5,5.6-9.4,4.2-15.3
		c-0.5-2.1-0.8-4.3-0.6-6.4c0.5-7.1,1.3-14.1,2-21.5c-2.7,1.8-5.3,3.4-7.8,5.1c-2.3,1.6-3.7,3.7-3.8,6.7c-0.1,4.5-1.5,8.7-4.7,11.9
		c-2.4,2.5-5.1,4.7-7.8,6.8c-6.4,4.8-9.5,11.2-10.2,19.1c-0.5,6.1-1.7,12.1-2.2,18.2c-0.4,4.8-0.3,9.6-0.1,14.5
		c0.1,2.3,1.2,4.5,2.1,7.6c8.7-13,17.2-25,30.2-33.4c-3-1.3-5.3-2.3-8.1-3.5c0.5-1.1,0.8-2.4,1.5-3.4
		C474.8,112.1,476.7,110.1,478.4,108z M369.3,229.8c9.4-7.7,11.1-18.8,10.3-30c-0.3-4.5-1.2-8.8,0-14c-3.8,0.9-7.2,1.7-10.6,2.5
		c0,4.4,0.1,8.6,0,12.8c-0.2,5.5-1.8,10.5-5.4,14.6c-3.3,3.7-7.2,6-12.7,4.6c-5.9-1.5-10-5.4-14.3-9.5c-2.7,3.1-5.4,6.1-8,9.3
		c-0.5,0.6-0.6,2-0.2,2.6c2.8,4.4,6.3,8,11.7,9.1c3.9,0.8,7.7,2.1,11.6,2.3C357.8,234.7,364.3,233.9,369.3,229.8z M353.9,213
		c10.6-6.4,11.2-17.3,3.7-24.7c-1,0.7-1.9,1.4-2.7,2.2c-0.5,0.5-1,1.1-1.5,1.7l0,0c-4.2,5.3-4.9,12.5-2.1,17.5
		c0.1,0.2,0.2,0.4,0.3,0.6c0.3,0.4,0.5,0.8,0.8,1.1C352.9,212,353.4,212.5,353.9,213z M352.2,450c2.4-10.9,1.1-21.6-1.6-32.3
		c-2.3-8.8-4.5-17.7-6.6-26.5c-0.9-3.8,0.3-10.3,4.3-11.5c-1.4-3.7-3.8-1.4-5.8-0.9c-8.6,2.2-15.3,12.5-13.7,21.2
		c1,5.5,2.7,10.8,3.4,16.3c1.7,12.2-0.6,22.8-14,29.8c-2.6,1.4-5,2.8-7.5-0.2c-0.6-0.8-2-1.1-3-1.3c-4.9-0.9-9.8-2-14.7-2.3
		c-5.3-0.3-10.7,0-15.9,0.6c-5.3,0.6-10.8,1-15.4,4.3c-0.5,0.4-1.6,0.5-2.3,0.3c-10.1-4.3-17.9-10.9-17.4-23.7
		c0.3-7.8,2.2-15.7,3.7-23.4c2.2-11.2-8.8-23.6-20.6-22.8c0.8,1.2,1.3,2.5,2.3,3.3c2.5,2.3,3.4,5.2,2.8,8.3c-0.9,5-1.8,10-3.5,14.7
		c-4.7,13.1-8.5,26.3-7,40.5c0.8,7.9,2.7,15.7,8.9,20.9c12.4,10.4,26.2,18.2,43.2,18.1c11.2-0.1,22.4,0.6,33.6,0.4
		c4.5-0.1,9.3-0.7,13.3-2.5c13.1-5.9,23.5-15.2,31.8-26.8C351.4,453.4,351.8,451.6,352.2,450z M330.9,367.2
		c0.8-3.4,1.8-6.8,2.7-10.1c-4.9-2.5-9.6-4.9-15.1-7.8c-5.9,8.9-0.8,18.6-0.2,28.4C324.3,375.9,329.4,373.8,330.9,367.2z
		 M322.4,430.7c1-4,1.4-7.9,0.3-11.6c-0.5-1.6-1.3-3.1-2.4-4.6l0,0l0,0c-0.1,0-0.3-0.1-0.4-0.2c-0.1-0.1-0.3-0.1-0.5-0.2
		c-0.2-0.1-0.4-0.2-0.5-0.2s-0.1,0-0.1,0l0,0l0,0c-0.3,0.7-0.6,1.3-0.8,2c-0.1,0.2-0.1,0.5-0.2,0.7c-0.9,4.4-1.7,8.8-2.5,13.2
		c-0.4,0.8-0.8,1.6-1.3,2.4c-0.4,0.6-0.8,1.3-1.2,1.9l0,0c-0.4,0.5-0.7,1-1.1,1.6c-0.1,0.2-0.3,0.4-0.4,0.6l0,0
		c2.9,1,5.5,1.8,8.2,2.8l0,0c0.4-1.1,0.8-2.2,1.2-3.2c0.3-0.8,0.6-1.6,0.9-2.4c0.2-0.5,0.4-1,0.5-1.6c0-0.2,0.1-0.3,0.1-0.5
		C322.3,431.2,322.3,431,322.4,430.7z M310.2,352.6c0.9-4.3-0.1-6.2-4.2-8c-5.4-2.2-11-4.4-16.5-6.2c-1.6-0.5-3.7-0.3-5.3,0.3
		c-5.8,1.9-11.5,4-17.2,6.3c-1.2,0.5-2.7,2.1-2.8,3.2c0,3.8,0.5,7.6,0.9,11.5c0.4,0.1,0.8,0.3,1.1,0.4c1.7-1.5,3.7-2.8,5.1-4.6
		c1.5-2.1,3.2-3.2,5.7-2.6c6.5,1.6,12.8,1.2,19.2-0.5c2.1-0.6,4.2-0.3,5.8,2.1c1.4,2.1,3.7,3.6,6,5.7
		C308.8,357.2,309.7,354.9,310.2,352.6z M302.7,435c3.4-0.9,6.5-9.5,4.7-12.5c-0.1-0.2-0.5-0.3-0.7-0.4c-11.2,5.9-31.2,5.9-39.4-0.1
		c-2,1-2.4,2.2-1.6,4.1c0.8,1.8,1.4,3.6,2.2,5.4c1,2.3,2.5,3.9,5.2,4.1c3.4,0.2,6.7,0.5,10,0.8C289.7,437.1,296.2,436.7,302.7,435z
		 M257.2,367.2c0.4-3.5,0.7-7.1,0.6-10.7c-0.1-2.1-0.8-4.2-1.6-6.1c-0.7-1.5-1.8-1.8-3.3-0.4c-1.8,1.6-4,2.8-6.1,3.9
		s-4.5,1.8-6.6,2.7c0.8,3,1.9,5.8,2.4,8.6c1.2,7.3,6.1,10.6,12.8,12.2C255.9,374,256.8,370.6,257.2,367.2z M234.6,231.5
		c5.7-1.6,8.5-5.9,11.4-10.2c-3.1-3.5-6.1-6.9-8.8-10c-4.2,2.9-7.8,5.9-11.9,8.1c-4.7,2.5-9.4,1.9-13.6-1.8
		c-3.9-3.4-6.2-7.7-6.8-12.7c-0.7-5.5-0.7-11-1-16.7c-3.2-0.7-6.5-1.5-9.7-2.3c0.2,3.3,0.8,6.2,0.5,8.9c-0.5,3.9-1.6,7.6-1,11.7
		c0.8,6,2,11.8,5,17.1c2.6,4.4,6.2,7.3,11.2,8.9C218.3,235.5,226.3,233.8,234.6,231.5z M222.6,208.3c2.4-5.7,0.7-12.8-4.2-17.8
		c-0.5-0.5-1.1-1.1-1.7-1.6c-0.3-0.3-0.6-0.5-0.9-0.7c-0.2,0.2-0.4,0.4-0.6,0.6c-0.4,0.4-0.8,0.9-1.1,1.3c-3.5,4.5-4.2,9.7-2.2,14.4
		c0.2,0.6,0.5,1.1,0.8,1.7c0.3,0.5,0.7,1.1,1.1,1.6c0.6,0.8,1.3,1.6,2,2.3c0.8,0.7,1.6,1.4,2.6,2.1c0.4,0.3,1.8-0.2,2.4-0.8
		c0.1,0,0.1-0.1,0.2-0.2C221.7,210.4,222.2,209.4,222.6,208.3z M167.2,125.8c4.8-8.6,5.9-17.9,4.8-27.4c-0.8-7.1-3.3-13.7-8.3-19
		l0,0c-0.3-0.4-0.7-0.7-1-1l0,0c-1.3-1.1-2.6-2.2-4-3.3c-1.8-1-3.4-2.2-5.3-2.9c-18.7-7.9-37.8-14.7-55.6-24.6
		c-1.8-1-3.7-2.1-5.6-3.1c-1.3-0.7-2.6-1.4-3.9-2.1c-1.4-0.9-2.7-1.8-4.1-2.6c-0.3,0.2-0.5,0.4-0.8,0.5l0,0l0,0
		c1,2.7,2.1,5.5,3.1,8.2c2.2,2.8,4.3,5.5,6.5,8.3c0.9,0.7,1.8,1.4,2.7,2.1c5.2,2.5,10.4,5,15.6,7.5l0,0c1,0.6,1.9,1.1,2.9,1.7
		c1.3,0.9,2.5,1.7,3.8,2.5c0.6,0.4,1.2,0.8,1.7,1.2l0,0c0.7,0.5,1.5,1,2.2,1.6l0,0c1.3,1.1,2.7,2.3,4,3.4l0,0l0,0
		c0.5,0.3,1,0.6,1.5,0.9c0.3,0.3,0.6,0.6,0.9,0.8c1.2,1,2.5,2.1,3.7,3.1c2.1,2.3,4.3,4.6,6.4,6.9c-4.7,1.3-8.8,2.4-12.8,3.7
		c-0.5,0.2-1.3,0.4-1.6,0.8c-0.2,0.2-0.3,0.4-0.1,0.7c0,0.1,0,0.1,0.1,0.1c0,0.1,0.1,0.2,0.2,0.3c0.1,0.1,0.2,0.3,0.4,0.4
		c0.1,0.1,0.2,0.1,0.2,0.2c2,1,4,2,6,2.9l0,0c1.6,1.6,3.3,3.3,4.9,4.9l0,0c2.1,4.1,4.2,8.3,6.2,12.4c0.8,1.5,1.6,2.9,2.5,4.3
		c0.2,0.4,0.3,0.7,0.5,1.1l0,0c0,0.1,0.1,0.2,0.1,0.3c0.9,2.2,1.8,4.5,2.6,6.7c0.3,0.8,0.6,1.5,0.9,2.3c0.4,1.1,0.9,2.1,1.3,3.2
		c0.4,0.8,0.7,1.6,1.2,2.3c0.1,0.3,0.3,0.5,0.4,0.7c0.2,0.4,0.5,0.7,0.7,1c0.1,0.1,0.3,0.3,0.4,0.4c1.4,1.3,3,1.1,5.2-0.4
		c2.6-3,5.1-6,7.6-9C166.2,127.4,166.7,126.6,167.2,125.8z M124.5,154.2c0.7-3.6,2-7.2,1.8-10.7c-0.5-9.9-1.6-19.7-2.5-29.5
		c-0.5-5.3-1.9-10.5-5.7-14.5c-2.6-2.7-5.7-4.9-8.7-7.3c-4.4-3.6-7.6-8.1-8.1-13.8c-0.6-6.1-5.3-11.5-11.7-12.7
		c0.6,4.9,1.3,9.9,1.7,14.8c0.3,3.7,0.5,7.4-0.1,11c-0.9,5.9-0.3,11.2,3.5,15.8c2.1,2.6,4.4,5.1,6.4,7.8c1,1.4,1.7,2.9-1.1,3.5
		c-1.9,0.4-3.6,1.6-6,2.7C107,129.8,115.5,141.8,124.5,154.2z"/>
	<path class="st4" d="M454.6,332.8c0.9,3.8,1.3,7.8,1.2,12c-0.1,6.5-0.8,13-1.2,19.5c0,0.2-0.1,0.4-0.2,0.6l0,0
		c-0.1,0.2-0.1,0.3-0.2,0.4c-4.8-10-9.7-20-14.6-30.1c-2.1-3.7-4.1-7.4-6.2-11.1c-1.4-2.5-2.9-4.9-4.4-7.4c-0.6-1-1.2-2.1-1.8-3.1
		c-0.6-1-1.2-2-1.9-3.1c-1.3-2.3-2.6-4.5-3.9-6.8c0.2-0.3,0.3-0.6,0.5-0.9c4,1.8,7.9,3.6,11.9,5.5l0,0c0.6,0.4,1.2,0.8,1.9,1.2l0,0
		l0,0l0,0c0.6,0.4,1.2,0.8,1.8,1.2l0,0l0,0c0.8,0.6,1.6,1.2,2.5,1.8l0,0c0.4,0.3,0.7,0.5,1.1,0.8s0.7,0.5,1.1,0.8l0,0
		c0.5,0.5,1,1,1.6,1.5c1.1,0.9,2.1,1.9,3.1,2.8c0.9,1,1.8,2,2.6,3l0,0c1.2,1.6,2.1,3.2,3,4.9l0,0c0.4,0.9,0.8,1.7,1.1,2.6l0,0
		c0.2,0.6,0.4,1.2,0.6,1.8l0,0C454.3,331.5,454.5,332.1,454.6,332.8C454.6,332.7,454.6,332.7,454.6,332.8z"/>
	<path class="st4" d="M363.1,289.7c0.7,2.3,0.4,4.5-2,5.8c-2.3,1.2-6.2,1-7.4-0.9c-2-3.1-3.8-6.3-5-9.7c-1.2-3.3,1.2-5.5,5.4-5.5
		c2.8-0.3,4.8,1.5,6.2,3.7C361.5,285,362.4,287.4,363.1,289.7z"/>
	<path class="st4" d="M344.3,297.4c3.8-0.6,10.4,6.1,9.8,9.8c-0.6,4.1-6.4,8.1-11.7,8.1c-3.7,0-4.2-0.5-4.4-4.2
		c-0.3-4.9,1.3-9,4.6-12.5C343.1,298.1,343.7,297.5,344.3,297.4z"/>
	<path class="st4" d="M351.4,326.3c1.5,1.9,2.4,4.1,0.9,6.5c-1.3,2-5,2.8-7.5,1.9c-4.7-1.8-7.7-5.3-2.7-10.7
		c1.2-1.3,2.6-2.2,4.2-3.5C348.1,322.5,349.8,324.3,351.4,326.3z"/>
	<path class="st4" d="M235.5,310.9c0.1,4-0.6,4.3-4.5,4.3c-6.1,0-11.4-4.3-11.5-9.1c-0.1-2.5,0.8-4.3,3.1-5.4
		c0.5-0.2,0.9-0.6,1.3-0.8c5.6-3.3,7-3.1,9.8,2.9C234.9,305.2,235.5,308.2,235.5,310.9z"/>
	<path class="st4" d="M233.2,326.2c1.6,2.4,0.8,5.1-1.6,7c-3,2.3-7.2,2.4-9.6,0.3c-1.7-1.5-1.8-4.3,0.1-6.9c1.6-2.1,3.4-4,5.6-6.4
		C229.8,322.4,231.8,324.2,233.2,326.2z"/>
	<path class="st4" d="M223.3,280.3c2.6,1.7,2.1,4.2,1,6.5c-1.2,2.5-2.4,4.9-4,7.1c-1.8,2.5-5.7,3.1-8.2,1.3c-1-0.8-1.5-2.4-1.9-3
		c0.6-5.2,2.1-9,5.7-11.7C218.1,278.8,220.9,278.7,223.3,280.3z"/>
	<path class="st4" d="M136.6,310.7v-0.1c0.6-0.4,1.2-0.8,1.8-1.2l0,0l0.1-0.1c0.6-0.4,1.2-0.7,1.8-1.1l0,0v-0.1l0,0l0,0
		c4-1.7,8.1-3.5,12.1-5.2c0.1,0.3,0.3,0.6,0.4,0.8c-0.6,1.3-1.2,2.5-1.8,3.8l0,0v0.1l0,0l0,0l0,0c-1.2,2-2.4,4.1-3.6,6.2h-0.1l0,0
		l0,0c-2,3.5-4.1,6.9-6.1,10.4l0,0l0,0l0,0v0.1l0,0c-0.8,1.4-1.6,2.8-2.4,4.2l0,0l0,0l0.1,0.1c-1.3,2.2-2.6,4.4-3.8,6.6l0,0l0,0v0.1
		c-3.1,6.2-6.1,12.3-9.2,18.5l0,0l0,0l0,0l0.1,0.1l0,0c-0.6,1.2-1.2,2.4-1.9,3.6l0,0l0,0l0,0l0,0l0,0l0,0c-1.1,2.7-2.2,5.3-3.3,8
		c-2.4-13.3-3.7-26.3,1.2-39.1l0,0l0,0l0,0c0.3-0.6,0.5-1.2,0.7-1.9h0.1l0,0l0,0c1.4-1.9,2.8-3.7,4.1-5.6l0,0
		c0.2-0.2,0.4-0.3,0.6-0.5l0,0c2.3-2,4.6-4,6.9-6l0,0l-0.1-0.1c0.4-0.3,0.8-0.5,1.2-0.7l0,0l0,0l0,0
		C135.7,311.3,136.2,311,136.6,310.7L136.6,310.7z"/>
</g>
</svg>
